<?xml version="1.0" encoding="UTF-8" standalone="no"?>
<!-- Created with Inkscape (http://www.inkscape.org/) -->
<svg xmlns:inkscape="http://www.inkscape.org/namespaces/inkscape" xmlns:rdf="http://www.w3.org/1999/02/22-rdf-syntax-ns#" xmlns="http://www.w3.org/2000/svg" xmlns:xlink="http://www.w3.org/1999/xlink" xmlns:ns1="http://sozi.baierouge.fr" xmlns:cc="http://creativecommons.org/ns#" xmlns:sodipodi="http://sodipodi.sourceforge.net/DTD/sodipodi-0.dtd" xmlns:dc="http://purl.org/dc/elements/1.1/" id="svg2" xml:space="preserve" viewBox="0 0 27.195 41.301" version="1.1" inkscape:version="0.91 r13725">
  <defs id="defs6">
    <clipPath id="clipPath18">
      <path id="path20" d="m8.941 0.67c2.266 0 4.243 0.308 5.922 0.918 1.653 0.636 2.586 1.414 2.801 2.332l0.039-0.321c0-0.988-0.867-1.836-2.601-2.539-1.707-0.707-3.774-1.058-6.2-1.058-2.425 0-4.492 0.351-6.199 1.058-1.707 0.703-2.562 1.551-2.562 2.539l0.043 0.461c0.132-0.941 1.039-1.742 2.718-2.402 1.707-0.656 3.719-0.988 6.039-0.988z" inkscape:connector-curvature="0"/>
    </clipPath>
    <clipPath id="clipPath26">
      <path id="path28" d="m0.022099-48.159h22.5v8.4986h-22.5v-8.4986z" inkscape:connector-curvature="0"/>
    </clipPath>
    <linearGradient id="linearGradient30" y2="-43.925" gradientUnits="userSpaceOnUse" x2="22.1" y1="-43.925" x1=".1997">
      <stop id="stop32" style="stop-color:#ffffff;stop-opacity:.29799" offset="0"/>
      <stop id="stop34" style="stop-color:#ffffff;stop-opacity:.36860" offset=".98820"/>
      <stop id="stop36" style="stop-color:#ffffff;stop-opacity:.36860" offset="1"/>
    </linearGradient>
    <mask id="mask38">
      <g id="g40">
        <g id="g42" clip-path="url(#clipPath26)">
          <path id="path44" style="fill:url(#linearGradient30)" d="m0.022099-48.159h22.5v8.4986h-22.5v-8.4986z" inkscape:connector-curvature="0"/>
        </g>
      </g>
    </mask>
    <linearGradient id="linearGradient48" y2="-43.925" gradientUnits="userSpaceOnUse" x2="22.1" y1="-43.925" x1=".1997">
      <stop id="stop50" style="stop-color:#000000" offset="0"/>
      <stop id="stop52" style="stop-color:#000000" offset="1"/>
    </linearGradient>
    <clipPath id="clipPath60">
      <path id="path62" d="m17.703 4.271c0-0.988-0.855-1.836-2.562-2.543-1.703-0.703-3.774-1.058-6.2-1.058-2.425 0-4.492 0.355-6.199 1.058-1.707 0.707-2.558 1.555-2.558 2.543 0 0.989 0.851 1.824 2.558 2.508 1.707 0.703 3.774 1.059 6.199 1.059 2.426 0 4.497-0.356 6.2-1.059 1.707-0.684 2.562-1.519 2.562-2.508z" inkscape:connector-curvature="0"/>
    </clipPath>
    <clipPath id="clipPath68">
      <path id="path70" d="m0.022099-46.742h22.5v11.331h-22.5v-11.331z" inkscape:connector-curvature="0"/>
    </clipPath>
    <linearGradient id="linearGradient72" y2="-40.774" gradientUnits="userSpaceOnUse" x2="22.15" y1="-40.774" x1=".25">
      <stop id="stop74" style="stop-color:#ffffff;stop-opacity:.25879" offset="0"/>
      <stop id="stop76" style="stop-color:#ffffff;stop-opacity:.25879" offset="1"/>
    </linearGradient>
    <mask id="mask78">
      <g id="g80">
        <g id="g82" clip-path="url(#clipPath68)">
          <path id="path84" style="fill:url(#linearGradient72)" d="m0.022099-46.742h22.5v11.331h-22.5v-11.331z" inkscape:connector-curvature="0"/>
        </g>
      </g>
    </mask>
    <linearGradient id="linearGradient88" y2="-40.774" gradientUnits="userSpaceOnUse" x2="22.15" y1="-40.774" x1=".25">
      <stop id="stop90" style="stop-color:#cde5fd" offset="0"/>
      <stop id="stop92" style="stop-color:#93a9c1" offset="1"/>
    </linearGradient>
    <clipPath id="clipPath100">
      <path id="path102" d="m15.223 6.744c1.652-0.684 2.48-1.508 2.48-2.473 0-0.988-0.855-1.836-2.562-2.543-1.703-0.703-3.774-1.058-6.2-1.058-2.425 0-4.492 0.355-6.199 1.058-1.707 0.707-2.558 1.555-2.558 2.543 0 0.59 0.332 1.141 1 1.66 0.64 0.493 1.531 0.907 2.679 1.235-0.883-0.422-1.468-0.801-1.761-1.129-0.399-0.473-0.426-1.012-0.079-1.625 0.586-1.059 2.024-1.813 4.321-2.258 2.211-0.449 4.437-0.449 6.679 0 1.653 0.328 2.665 0.988 3.039 1.977 0.321 0.918 0.04 1.789-0.839 2.613z" inkscape:connector-curvature="0"/>
    </clipPath>
    <clipPath id="clipPath108">
      <path id="path110" d="m0.022099-46.742h22.5v11.331h-22.5v-11.331z" inkscape:connector-curvature="0"/>
    </clipPath>
    <linearGradient id="linearGradient112" y2="-41.25" gradientUnits="userSpaceOnUse" x2="22.15" y1="-41.25" x1=".25">
      <stop id="stop114" style="stop-color:#ffffff;stop-opacity:.29799" offset="0"/>
      <stop id="stop116" style="stop-color:#ffffff;stop-opacity:0" offset=".98820"/>
      <stop id="stop118" style="stop-color:#ffffff;stop-opacity:0" offset="1"/>
    </linearGradient>
    <mask id="mask120">
      <g id="g122">
        <g id="g124" clip-path="url(#clipPath108)">
          <path id="path126" style="fill:url(#linearGradient112)" d="m0.022099-46.742h22.5v11.331h-22.5v-11.331z" inkscape:connector-curvature="0"/>
        </g>
      </g>
    </mask>
    <linearGradient id="linearGradient130" y2="-41.25" gradientUnits="userSpaceOnUse" x2="22.15" y1="-41.25" x1=".25">
      <stop id="stop132" style="stop-color:#ffffff" offset="0"/>
      <stop id="stop134" style="stop-color:#ffffff" offset="1"/>
    </linearGradient>
    <clipPath id="clipPath154">
      <path id="path156" d="m15.941 28.486c-0.773-0.633-1.746-1.035-2.918-1.199-0.695-0.117-1.789-0.164-3.281-0.141-2.695 0.024-4.281 0.071-4.762 0.141-1.812 0.211-3.199 0.766-4.156 1.66v0.035l1.918 1.199c1.735 0.778 3.719 1.118 5.961 1.024 2.238 0.094 4.227-0.223 5.961-0.953 0.852-0.375 1.492-0.754 1.918-1.129v-0.106l-0.641-0.531z" inkscape:connector-curvature="0"/>
    </clipPath>
    <clipPath id="clipPath162">
      <path id="path164" d="m16319-16331h21.25v7.083h-21.25v-7.083z" inkscape:connector-curvature="0"/>
    </clipPath>
    <linearGradient id="linearGradient166" y2="-16327" gradientUnits="userSpaceOnUse" x2="16338" y1="-16327" x1="16320">
      <stop id="stop168" style="stop-color:#ffffff;stop-opacity:.25879" offset="0"/>
      <stop id="stop170" style="stop-color:#ffffff;stop-opacity:.25879" offset="1"/>
    </linearGradient>
    <mask id="mask172">
      <g id="g174">
        <g id="g176" clip-path="url(#clipPath162)">
          <path id="path178" style="fill:url(#linearGradient166)" d="m16319-16331h21.25v7.083h-21.25v-7.083z" inkscape:connector-curvature="0"/>
        </g>
      </g>
    </mask>
    <linearGradient id="linearGradient182" y2="-16327" gradientUnits="userSpaceOnUse" x2="16338" y1="-16327" x1="16320">
      <stop id="stop184" style="stop-color:#cde5fd" offset="0"/>
      <stop id="stop186" style="stop-color:#93a9c1" offset="1"/>
    </linearGradient>
    <clipPath id="clipPath194">
      <path id="path196" d="m21.223 14.756c-0.453-2.024-1.387-3.321-2.801-3.883-0.188-0.07-0.719-0.223-1.598-0.461-0.59-0.164-0.988-0.363-1.203-0.598-0.504-0.519-0.824-0.39-0.957 0.387-0.082 0.379-0.121 1.035-0.121 1.977 0 0.355 0.055 0.718 0.16 1.093l0.121 0.496 1.637-0.211c1.121 0.024 1.789 0.457 2 1.305 0.402 1.484 0.508 2.813 0.32 3.988-0.265 1.602-1.105 2.239-2.519 1.907-1.465-0.375-2.215-0.27-2.239 0.32 0 0.398 0.293 0.937 0.879 1.621 0.852 1.059 2.012 1.508 3.481 1.344 1.121-0.145 2-1.098 2.64-2.86 0.692-1.906 0.758-4.05 0.2-6.425z" inkscape:connector-curvature="0"/>
    </clipPath>
    <clipPath id="clipPath202">
      <path id="path204" d="m17.522-33.994h10v22.663h-10v-22.663z" inkscape:connector-curvature="0"/>
    </clipPath>
    <linearGradient id="linearGradient206" y2="-23.022" gradientUnits="userSpaceOnUse" x2="27" y1="-23.022" x1="17.6">
      <stop id="stop208" style="stop-color:#ffffff;stop-opacity:.80780" offset="0"/>
      <stop id="stop210" style="stop-color:#ffffff;stop-opacity:.25879" offset="1"/>
    </linearGradient>
    <mask id="mask212">
      <g id="g214">
        <g id="g216" clip-path="url(#clipPath202)">
          <path id="path218" style="fill:url(#linearGradient206)" d="m17.522-33.994h10v22.663h-10v-22.663z" inkscape:connector-curvature="0"/>
        </g>
      </g>
    </mask>
    <linearGradient id="linearGradient222" y2="-23.022" gradientUnits="userSpaceOnUse" x2="27" y1="-23.022" x1="17.6">
      <stop id="stop224" style="stop-color:#cde5fd" offset="0"/>
      <stop id="stop226" style="stop-color:#93a9c1" offset="1"/>
    </linearGradient>
    <clipPath id="clipPath236">
      <path id="path238" d="m20.582 19.803c0.188-1.504 0.133-3-0.16-4.481-0.266-1.297-0.465-1.871-0.598-1.73-0.16 0.164-0.136 0.929 0.078 2.293 0.293 1.859 0.172 3.402-0.359 4.625-0.293 0.707-0.773 1.351-1.441 1.941-0.504 0.445-0.625 0.73-0.36 0.848 0.266 0.093 0.696 0 1.281-0.282 0.801-0.402 1.321-1.472 1.559-3.214z" inkscape:connector-curvature="0"/>
    </clipPath>
    <clipPath id="clipPath244">
      <path id="path246" d="m24.891-16314h15.586v5.002h-15.586v-5.002z" inkscape:connector-curvature="0"/>
    </clipPath>
    <linearGradient id="linearGradient248" y2="-16311" gradientUnits="userSpaceOnUse" x2="38.595" y1="-16311" x1="27.595">
      <stop id="stop250" style="stop-color:#ffffff;stop-opacity:.75691" offset="0"/>
      <stop id="stop252" style="stop-color:#ffffff;stop-opacity:0" offset=".98820"/>
      <stop id="stop254" style="stop-color:#ffffff;stop-opacity:0" offset="1"/>
    </linearGradient>
    <mask id="mask256">
      <g id="g258">
        <g id="g260" clip-path="url(#clipPath244)">
          <path id="path262" style="fill:url(#linearGradient248)" d="m24.891-16314h15.586v5.002h-15.586v-5.002z" inkscape:connector-curvature="0"/>
        </g>
      </g>
    </mask>
    <linearGradient id="linearGradient266" y2="-16311" gradientUnits="userSpaceOnUse" x2="38.595" y1="-16311" x1="27.595">
      <stop id="stop268" style="stop-color:#ffffff" offset="0"/>
      <stop id="stop270" style="stop-color:#ffffff" offset="1"/>
    </linearGradient>
    <linearGradient id="linearGradient284" y2="-24.25" gradientUnits="userSpaceOnUse" x2="21.675" gradientTransform="matrix(.8 0 0 .706 -.017679 33.041)" y1="-24.25" x1=".125">
      <stop id="stop286" style="stop-color:#feb228" offset="0"/>
      <stop id="stop288" style="stop-color:#875605" offset="1"/>
    </linearGradient>
    <linearGradient id="linearGradient302" y2="-11.469" gradientUnits="userSpaceOnUse" x2="21.075" gradientTransform="matrix(.8 0 0 .706 -.017679 33.041)" y1="-11.469" x1=".6997">
      <stop id="stop304" style="stop-color:#faf1d4" offset="0"/>
      <stop id="stop306" style="stop-color:#ccbb82" offset="1"/>
    </linearGradient>
    <clipPath id="clipPath314">
      <path id="path316" d="m0.824 28.982 1.918-0.883c1.735-0.613 3.719-0.964 5.961-1.058 2.238 0.094 4.227 0.445 5.961 1.058 0.852 0.305 1.492 0.598 1.918 0.883l0.762-19.664c0-1.48-0.11-2.601-0.321-3.351-0.293-1.059-0.839-1.707-1.64-1.942-0.828-0.285-1.481-0.484-1.961-0.601-0.852-0.211-1.824-0.364-2.918-0.457l-0.563-0.106h-2.48c-0.211 0-0.399 0.035-0.559 0.106-1.093 0.093-2.066 0.246-2.922 0.457-0.851 0.257-1.503 0.461-1.957 0.601-0.8 0.235-1.347 0.883-1.64 1.942-0.215 0.75-0.321 1.871-0.321 3.351l0.762 19.664z" inkscape:connector-curvature="0"/>
    </clipPath>
    <clipPath id="clipPath322">
      <path id="path324" d="m16317-16326h22.5v38.243h-22.5v-38.243z" inkscape:connector-curvature="0"/>
    </clipPath>
    <linearGradient id="linearGradient326" y2="-16308" gradientUnits="userSpaceOnUse" x2="16338" y1="-16308" x1="16320">
      <stop id="stop328" style="stop-color:#ffffff;stop-opacity:.25879" offset="0"/>
      <stop id="stop330" style="stop-color:#ffffff;stop-opacity:.25879" offset="1"/>
    </linearGradient>
    <mask id="mask332">
      <g id="g334">
        <g id="g336" clip-path="url(#clipPath322)">
          <path id="path338" style="fill:url(#linearGradient326)" d="m16317-16326h22.5v38.243h-22.5v-38.243z" inkscape:connector-curvature="0"/>
        </g>
      </g>
    </mask>
    <linearGradient id="linearGradient342" y2="-16308" gradientUnits="userSpaceOnUse" x2="16338" y1="-16308" x1="16320">
      <stop id="stop344" style="stop-color:#cde5fd" offset="0"/>
      <stop id="stop346" style="stop-color:#93a9c1" offset="1"/>
    </linearGradient>
    <clipPath id="clipPath358">
      <path id="path360" d="m2.301 28.205c-0.008-0.152-0.016-0.305-0.02-0.461l-0.539 0.18 0.559 0.281zm-0.438-9.391c0.102 3.25 0.239 6.227 0.418 8.93l1.461-0.492c0.988-0.328 2.254-0.543 3.801-0.637l0.16-0.988c0.078-0.801 0.106-1.586 0.078-2.364-0.027-0.636 0.016-3.953 0.121-9.957 0-5.738-0.265-8.812-0.8-9.211-0.719-0.496-1.454-0.66-2.2-0.496-0.828 0.192-1.547 0.766-2.16 1.731-0.535 0.894-0.851 2.754-0.961 5.578-0.051 1.648-0.027 4.281 0.082 7.906z" inkscape:connector-curvature="0"/>
    </clipPath>
    <clipPath id="clipPath366">
      <path id="path368" d="m-291.82-42.493h10.072v36.827h-10.072v-36.827z" inkscape:connector-curvature="0"/>
    </clipPath>
    <linearGradient id="linearGradient370" y2="-24.318" gradientUnits="userSpaceOnUse" x2="-282.27" y1="-24.318" x1="-290.87">
      <stop id="stop372" style="stop-color:#ffffff;stop-opacity:.51760" offset="0"/>
      <stop id="stop374" style="stop-color:#ffffff;stop-opacity:0" offset=".98820"/>
      <stop id="stop376" style="stop-color:#ffffff;stop-opacity:0" offset="1"/>
    </linearGradient>
    <mask id="mask378">
      <g id="g380">
        <g id="g382" clip-path="url(#clipPath366)">
          <path id="path384" style="fill:url(#linearGradient370)" d="m-291.82-42.493h10.072v36.827h-10.072v-36.827z" inkscape:connector-curvature="0"/>
        </g>
      </g>
    </mask>
    <linearGradient id="linearGradient388" y2="-24.318" gradientUnits="userSpaceOnUse" x2="-282.27" y1="-24.318" x1="-290.87">
      <stop id="stop390" style="stop-color:#ffffff" offset="0"/>
      <stop id="stop392" style="stop-color:#ffffff" offset="1"/>
    </linearGradient>
    <clipPath id="clipPath400">
      <path id="path402" d="m12.941 27.287 2.082 0.531c0.614-7.226 0.813-12.512 0.598-15.851-0.105-2.094-0.719-3.93-1.84-5.508-0.531-0.797-1.066-1.387-1.597-1.766 0.265 0.262 0.546 0.731 0.839 1.414 0.532 1.363 0.801 3.094 0.801 5.188 0 3.343-0.297 8.672-0.883 15.992z" inkscape:connector-curvature="0"/>
    </clipPath>
    <clipPath id="clipPath408">
      <path id="path410" d="m-428.67-15857h34.218v6.879h-34.218v-6.879z" inkscape:connector-curvature="0"/>
    </clipPath>
    <linearGradient id="linearGradient412" y2="-15854" gradientUnits="userSpaceOnUse" x2="-404.71" y1="-15854" x1="-428.13">
      <stop id="stop414" style="stop-color:#ffffff;stop-opacity:.29799" offset="0"/>
      <stop id="stop416" style="stop-color:#ffffff;stop-opacity:0" offset=".98820"/>
      <stop id="stop418" style="stop-color:#ffffff;stop-opacity:0" offset="1"/>
    </linearGradient>
    <mask id="mask420">
      <g id="g422">
        <g id="g424" clip-path="url(#clipPath408)">
          <path id="path426" style="fill:url(#linearGradient412)" d="m-428.67-15857h34.218v6.879h-34.218v-6.879z" inkscape:connector-curvature="0"/>
        </g>
      </g>
    </mask>
    <linearGradient id="linearGradient430" y2="-15854" gradientUnits="userSpaceOnUse" x2="-404.71" y1="-15854" x1="-428.13">
      <stop id="stop432" style="stop-color:#ffffff" offset="0"/>
      <stop id="stop434" style="stop-color:#ffffff" offset="1"/>
    </linearGradient>
    <linearGradient id="linearGradient452" y2="-12.592" gradientUnits="userSpaceOnUse" x2="20.2" gradientTransform="matrix(.8 0 0 .706 -.017679 33.041)" y1="-12.592" x1="1.5">
      <stop id="stop454" style="stop-color:#f9f3e1" offset="0"/>
      <stop id="stop456" style="stop-color:#e4d8b3" offset="1"/>
    </linearGradient>
  </defs>
  <g id="g10" transform="matrix(1.25 0 0 -1.25 0 41.301)">
    <g id="g12">
      <g id="g14">
        <g id="g16" clip-path="url(#clipPath18)">
          <g id="g22" transform="matrix(.8 0 0 .706 -.017679 33.041)">
            <g id="g46" mask="url(#mask38)">
              <path id="path54" style="fill-rule:evenodd;fill:url(#linearGradient48)" d="m8.941 0.67c2.266 0 4.243 0.308 5.922 0.918 1.653 0.636 2.586 1.414 2.801 2.332l0.039-0.321c0-0.988-0.867-1.836-2.601-2.539-1.707-0.707-3.774-1.058-6.2-1.058-2.425 0-4.492 0.351-6.199 1.058-1.707 0.703-2.562 1.551-2.562 2.539l0.043 0.461c0.132-0.941 1.039-1.742 2.718-2.402 1.707-0.656 3.719-0.988 6.039-0.988z" inkscape:connector-curvature="0"/>
            </g>
          </g>
        </g>
      </g>
      <g id="g56">
        <g id="g58" clip-path="url(#clipPath60)">
          <g id="g64" transform="matrix(.8 0 0 .706 -.017679 33.041)">
            <g id="g86" mask="url(#mask78)">
              <path id="path94" style="fill-rule:evenodd;fill:url(#linearGradient88)" d="m17.703 4.271c0-0.988-0.855-1.836-2.562-2.543-1.703-0.703-3.774-1.058-6.2-1.058-2.425 0-4.492 0.355-6.199 1.058-1.707 0.707-2.558 1.555-2.558 2.543 0 0.989 0.851 1.824 2.558 2.508 1.707 0.703 3.774 1.059 6.199 1.059 2.426 0 4.497-0.356 6.2-1.059 1.707-0.684 2.562-1.519 2.562-2.508z" inkscape:connector-curvature="0"/>
            </g>
          </g>
        </g>
      </g>
      <g id="g96">
        <g id="g98" clip-path="url(#clipPath100)">
          <g id="g104" transform="matrix(.8 0 0 .706 -.017679 33.041)">
            <g id="g128" mask="url(#mask120)">
              <path id="path136" style="fill-rule:evenodd;fill:url(#linearGradient130)" d="m15.223 6.744c1.652-0.684 2.48-1.508 2.48-2.473 0-0.988-0.855-1.836-2.562-2.543-1.703-0.703-3.774-1.058-6.2-1.058-2.425 0-4.492 0.355-6.199 1.058-1.707 0.707-2.558 1.555-2.558 2.543 0 0.59 0.332 1.141 1 1.66 0.64 0.493 1.531 0.907 2.679 1.235-0.883-0.422-1.468-0.801-1.761-1.129-0.399-0.473-0.426-1.012-0.079-1.625 0.586-1.059 2.024-1.813 4.321-2.258 2.211-0.449 4.437-0.449 6.679 0 1.653 0.328 2.665 0.988 3.039 1.977 0.321 0.918 0.04 1.789-0.839 2.613z" inkscape:connector-curvature="0"/>
            </g>
          </g>
        </g>
      </g>
      <path id="path138" style="fill-rule:evenodd;fill:#e2e2e2" d="m0.98 5.154c0.215 0.094 0.375-0.07 0.481-0.496 0.16-0.656 0.43-1.188 0.801-1.586 0.402-0.402 0.359-0.566-0.121-0.496-0.477 0.047-0.918 0.309-1.317 0.777-0.375 0.446-0.523 0.836-0.441 1.164 0.078 0.286 0.281 0.496 0.597 0.637z" inkscape:connector-curvature="0"/>
      <path id="path140" style="fill-rule:evenodd;fill:#e2e2e2" d="m3.344 2.33c0.293-0.141 0.359-0.281 0.199-0.422-0.16-0.121-0.336-0.094-0.52 0.07-0.16 0.164-0.199 0.282-0.121 0.352s0.227 0.07 0.442 0z" inkscape:connector-curvature="0"/>
      <path id="path142" style="fill-rule:evenodd;fill:#e2e2e2" d="m16.344 3.318c0.238 0.352 0.398 0.66 0.48 0.918 0.078 0.258 0.145 0.434 0.199 0.531 0.239 0.305 0.399 0.176 0.481-0.39 0.051-0.516-0.227-0.989-0.84-1.41-0.668-0.45-1.269-0.684-1.801-0.707 0.746 0.375 1.239 0.73 1.481 1.058z" inkscape:connector-curvature="0"/>
      <path id="path144" style="fill-rule:evenodd;fill:#bccdde" d="m3.941 7.271c0.801 0.211 1.536 0.367 2.2 0.461 0.695-0.144 0.773-0.203 0.242-0.179-0.508 0.023-1.387-0.153-2.641-0.528-1.414-0.426-2.332-0.871-2.762-1.344-0.531-0.586-0.812-1.199-0.839-1.832-0.02-0.242-0.004-0.441 0.043-0.601-0.325 0.988-0.219 1.765 0.32 2.328 0.691 0.684 1.84 1.25 3.437 1.695z" inkscape:connector-curvature="0"/>
      <path id="path146" style="fill-rule:evenodd;fill:#bccdde" d="m12.824 7.553c1.707-0.372 2.852-0.801 3.438-1.286-0.235 0.137-0.797 0.368-1.68 0.688-0.719 0.258-1.574 0.445-2.559 0.562l-1.199 0.145 0.078 0.105 0.239 0.071c0.32 0 0.882-0.094 1.683-0.285z" inkscape:connector-curvature="0"/>
      <path id="path148" style="fill-rule:evenodd;fill:#bccdde" d="m17.703 4.271c0-0.988-0.855-1.836-2.562-2.543-1.703-0.703-3.774-1.058-6.2-1.058-2.425 0-4.492 0.355-6.199 1.058-1.707 0.707-2.558 1.555-2.558 2.543 0 0.989 0.851 1.824 2.558 2.508 1.707 0.703 3.774 1.059 6.199 1.059 2.426 0 4.497-0.356 6.2-1.059 1.707-0.684 2.562-1.519 2.562-2.508zm-0.402-0.035c0 0.895-0.813 1.66-2.438 2.293-1.652 0.637-3.629 0.953-5.922 0.953-2.32 0-4.293-0.316-5.918-0.953-1.628-0.633-2.441-1.398-2.441-2.293 0-0.894 0.813-1.66 2.441-2.293 1.625-0.637 3.598-0.953 5.918-0.953 2.293 0 4.266 0.316 5.922 0.953 1.625 0.633 2.438 1.399 2.438 2.293z" inkscape:connector-curvature="0"/>
      <g id="g150">
        <g id="g152" clip-path="url(#clipPath154)">
          <g id="g158" transform="matrix(-.8 0 0 -.706 13072 -11497)">
            <g id="g180" mask="url(#mask172)">
              <path id="path188" style="fill-rule:evenodd;fill:url(#linearGradient182)" d="m15.941 28.486c-0.773-0.633-1.746-1.035-2.918-1.199-0.695-0.117-1.789-0.164-3.281-0.141-2.695 0.024-4.281 0.071-4.762 0.141-1.812 0.211-3.199 0.766-4.156 1.66v0.035l1.918 1.199c1.735 0.778 3.719 1.118 5.961 1.024 2.238 0.094 4.227-0.223 5.961-0.953 0.852-0.375 1.492-0.754 1.918-1.129v-0.106l-0.641-0.531z" inkscape:connector-curvature="0"/>
            </g>
          </g>
        </g>
      </g>
      <g id="g190">
        <g id="g192" clip-path="url(#clipPath194)">
          <g id="g198" transform="matrix(.8 0 0 .706 -.017679 33.041)">
            <g id="g220" mask="url(#mask212)">
              <path id="path228" style="fill-rule:evenodd;fill:url(#linearGradient222)" d="m21.223 14.756c-0.453-2.024-1.387-3.321-2.801-3.883-0.188-0.07-0.719-0.223-1.598-0.461-0.59-0.164-0.988-0.363-1.203-0.598-0.504-0.519-0.824-0.39-0.957 0.387-0.082 0.379-0.121 1.035-0.121 1.977 0 0.355 0.055 0.718 0.16 1.093l0.121 0.496 1.637-0.211c1.121 0.024 1.789 0.457 2 1.305 0.402 1.484 0.508 2.813 0.32 3.988-0.265 1.602-1.105 2.239-2.519 1.907-1.465-0.375-2.215-0.27-2.239 0.32 0 0.398 0.293 0.937 0.879 1.621 0.852 1.059 2.012 1.508 3.481 1.344 1.121-0.145 2-1.098 2.64-2.86 0.692-1.906 0.758-4.05 0.2-6.425z" inkscape:connector-curvature="0"/>
            </g>
          </g>
        </g>
      </g>
      <path id="path230" style="fill-rule:evenodd;fill:#bccdde" d="m19.902 22.873c-0.507 0.637-1.027 0.965-1.558 0.988-1.364 0.168-2.453-0.258-3.282-1.269-0.718-0.825-0.988-1.387-0.8-1.696 0.187-0.281 0.828-0.281 1.922 0 0.957 0.215 1.664 0.047 2.117-0.492 0.508-0.543 0.746-1.461 0.722-2.754 0-0.941-0.121-1.883-0.359-2.824-0.242-0.965-1.016-1.445-2.32-1.445-0.453 0-0.922 0.058-1.403 0.175-0.132-0.425-0.199-0.882-0.199-1.378v-0.176c0-1.34 0.106-2.117 0.32-2.328h0.04c0.105 0 0.226 0.082 0.359 0.246 0.297 0.304 0.855 0.554 1.68 0.742 0.988 0.258 1.722 0.574 2.203 0.953 0.797 0.633 1.371 1.691 1.718 3.176 0.399 1.765 0.454 3.426 0.161 4.976-0.243 1.297-0.68 2.332-1.321 3.106zm1.52-8.117c-0.375-1.578-1-2.719-1.879-3.426-0.508-0.399-1.266-0.727-2.281-0.988-0.746-0.164-1.239-0.375-1.481-0.633-0.238-0.262-0.465-0.391-0.679-0.391-0.106 0-0.211 0.047-0.321 0.141-0.32 0.285-0.453 1.133-0.398 2.543v0.176c0 0.378 0.039 0.753 0.121 1.128 0.078 0.309 0.133 0.473 0.16 0.497l0.039 0.14 0.16-0.035c0.028 0 0.184-0.035 0.481-0.105 0.347-0.071 0.679-0.106 1-0.106 1.117 0 1.773 0.398 1.957 1.199 0.242 0.942 0.363 1.883 0.363 2.824-0.027 1.176-0.254 2-0.684 2.473-0.343 0.445-0.906 0.574-1.679 0.387-1.332-0.328-2.117-0.27-2.36 0.176-0.238 0.402 0.028 1.082 0.801 2.047 0.934 1.109 2.16 1.578 3.68 1.414 0.64-0.118 1.226-0.497 1.762-1.129 0.64-0.825 1.093-1.895 1.359-3.215 0.32-1.621 0.281-3.328-0.121-5.117z" inkscape:connector-curvature="0"/>
      <g id="g232">
        <g id="g234" clip-path="url(#clipPath236)">
          <g id="g240" transform="matrix(.000072727 -.706 .8 -.000706 13068 30.1)">
            <g id="g264" mask="url(#mask256)">
              <path id="path272" style="fill-rule:evenodd;fill:url(#linearGradient266)" d="m20.582 19.803c0.188-1.504 0.133-3-0.16-4.481-0.266-1.297-0.465-1.871-0.598-1.73-0.16 0.164-0.136 0.929 0.078 2.293 0.293 1.859 0.172 3.402-0.359 4.625-0.293 0.707-0.773 1.351-1.441 1.941-0.504 0.445-0.625 0.73-0.36 0.848 0.266 0.093 0.696 0 1.281-0.282 0.801-0.402 1.321-1.472 1.559-3.214z" inkscape:connector-curvature="0"/>
            </g>
          </g>
        </g>
      </g>
      <g id="g274">
        <g id="g276">
          <g id="g282">
            <path id="path290" style="fill-rule:evenodd;fill:url(#linearGradient284)" d="m0.824 28.982 1.918-0.883c1.735-0.613 3.719-0.964 5.961-1.058 2.238 0.094 4.227 0.445 5.961 1.058 0.852 0.305 1.492 0.598 1.918 0.883l0.762-19.664c0-1.48-0.11-2.601-0.321-3.351-0.293-1.059-0.839-1.707-1.64-1.942-0.828-0.285-1.481-0.484-1.961-0.601-0.852-0.211-1.824-0.364-2.918-0.457l-0.563-0.106h-2.48c-0.211 0-0.399 0.035-0.559 0.106-1.093 0.093-2.066 0.246-2.922 0.457-0.851 0.257-1.503 0.461-1.957 0.601-0.8 0.235-1.347 0.883-1.64 1.942-0.215 0.75-0.321 1.871-0.321 3.351l0.762 19.664z" inkscape:connector-curvature="0"/>
          </g>
        </g>
      </g>
      <g id="g292">
        <g id="g294">
          <g id="g300">
            <path id="path308" style="fill-rule:evenodd;fill:url(#linearGradient302)" d="m14.664 28.099c0.852 0.305 1.492 0.598 1.918 0.883l0.281-6.285c-1.066-0.777-2.547-1.293-4.441-1.551-1.52-0.215-3.598-0.285-6.238-0.215-2.137 0.047-4.016 0.485-5.641 1.309l0.281 6.742 1.918-0.883c1.735-0.613 3.719-0.964 5.961-1.058 2.238 0.094 4.227 0.445 5.961 1.058z" inkscape:connector-curvature="0"/>
          </g>
        </g>
      </g>
      <g id="g310">
        <g id="g312" clip-path="url(#clipPath314)">
          <g id="g318" transform="matrix(-.8 0 0 -.706 13072 -11497)">
            <g id="g340" mask="url(#mask332)">
              <path id="path348" style="fill-rule:evenodd;fill:url(#linearGradient342)" d="m0.824 28.982 1.918-0.883c1.735-0.613 3.719-0.964 5.961-1.058 2.238 0.094 4.227 0.445 5.961 1.058 0.852 0.305 1.492 0.598 1.918 0.883l0.762-19.664c0-1.48-0.11-2.601-0.321-3.351-0.293-1.059-0.839-1.707-1.64-1.942-0.828-0.285-1.481-0.484-1.961-0.601-0.852-0.211-1.824-0.364-2.918-0.457l-0.563-0.106h-2.48c-0.211 0-0.399 0.035-0.559 0.106-1.093 0.093-2.066 0.246-2.922 0.457-0.851 0.257-1.503 0.461-1.957 0.601-0.8 0.235-1.347 0.883-1.64 1.942-0.215 0.75-0.321 1.871-0.321 3.351l0.762 19.664z" inkscape:connector-curvature="0"/>
            </g>
          </g>
        </g>
      </g>
      <path id="path350" style="fill-rule:evenodd;fill:#bccdde" d="m16.703 14.189c-0.055 3.059-0.16 5.969-0.32 8.719l-0.442 5.578 0.082 0.176 0.559 0.32 0.762-19.664c0-1.48-0.11-2.601-0.321-3.351-0.293-1.059-0.839-1.707-1.64-1.942-0.828-0.285-1.481-0.484-1.961-0.601-0.852-0.211-1.824-0.364-2.918-0.457-0.16-0.071-0.32-0.106-0.481-0.106-0.375 0.164-0.828 0.281-1.359 0.352 0.133 0.023 0.359 0.035 0.68 0.035 1.679 0 3.211 0.316 4.597 0.953 1.2 0.566 2.016 1.211 2.442 1.941 0.32 0.567 0.426 3.246 0.32 8.047z" inkscape:connector-curvature="0"/>
      <path id="path352" style="fill-rule:evenodd;fill:#bccdde" d="m0.824 28.982 0.477-0.285 0.082-0.211c0.027-0.281-0.106-2.141-0.403-5.578-0.156-2.188-0.277-5.094-0.359-8.719-0.078-4.801 0.043-7.48 0.359-8.047 0.403-0.73 1.215-1.375 2.442-1.941 1.387-0.637 2.906-0.953 4.558-0.953 0.321 0 0.547-0.012 0.684-0.035 0.531-0.071 0.984-0.188 1.359-0.352h-2.562c-0.211 0-0.399 0.035-0.559 0.106-1.093 0.093-2.066 0.246-2.922 0.457-0.851 0.257-1.503 0.461-1.957 0.601-0.8 0.235-1.347 0.883-1.64 1.942-0.215 0.75-0.321 1.871-0.321 3.351l0.762 19.664z" inkscape:connector-curvature="0"/>
      <g id="g354">
        <g id="g356" clip-path="url(#clipPath358)">
          <g id="g362" transform="matrix(.8 0 .02872 .706 234.62 33.041)">
            <g id="g386" mask="url(#mask378)">
              <path id="path394" style="fill-rule:evenodd;fill:url(#linearGradient388)" d="m2.301 28.205c-0.008-0.152-0.016-0.305-0.02-0.461l-0.539 0.18 0.559 0.281zm-0.438-9.391c0.102 3.25 0.239 6.227 0.418 8.93l1.461-0.492c0.988-0.328 2.254-0.543 3.801-0.637l0.16-0.988c0.078-0.801 0.106-1.586 0.078-2.364-0.027-0.636 0.016-3.953 0.121-9.957 0-5.738-0.265-8.812-0.8-9.211-0.719-0.496-1.454-0.66-2.2-0.496-0.828 0.192-1.547 0.766-2.16 1.731-0.535 0.894-0.851 2.754-0.961 5.578-0.051 1.648-0.027 4.281 0.082 7.906z" inkscape:connector-curvature="0"/>
            </g>
          </g>
        </g>
      </g>
      <g id="g396">
        <g id="g398" clip-path="url(#clipPath400)">
          <g id="g404" transform="matrix(.0444 -.70494 .7988 .039183 12696 347.1)">
            <g id="g428" mask="url(#mask420)">
              <path id="path436" style="fill-rule:evenodd;fill:url(#linearGradient430)" d="m12.941 27.287 2.082 0.531c0.614-7.226 0.813-12.512 0.598-15.851-0.105-2.094-0.719-3.93-1.84-5.508-0.531-0.797-1.066-1.387-1.597-1.766 0.265 0.262 0.546 0.731 0.839 1.414 0.532 1.363 0.801 3.094 0.801 5.188 0 3.343-0.297 8.672-0.883 15.992z" inkscape:connector-curvature="0"/>
            </g>
          </g>
        </g>
      </g>
      <path id="path438" style="fill-rule:evenodd;fill:#bccdde" d="m14.383 30.568c1.574-0.445 2.359-0.976 2.359-1.586 0-0.613-0.785-1.129-2.359-1.554-1.574-0.422-3.469-0.637-5.68-0.637-2.215 0-4.105 0.215-5.68 0.637-1.574 0.425-2.359 0.941-2.359 1.554 0 0.61 0.785 1.141 2.359 1.586 1.575 0.426 3.465 0.637 5.68 0.637 2.211 0 4.106-0.211 5.68-0.637zm-0.602-0.07c-1.414 0.379-3.105 0.566-5.078 0.566s-3.668-0.187-5.082-0.566c-1.387-0.375-2.078-0.836-2.078-1.375 0-0.543 0.691-1 2.078-1.379 1.387-0.375 3.082-0.563 5.082-0.563s3.692 0.188 5.078 0.563c1.387 0.379 2.082 0.836 2.082 1.379 0 0.539-0.695 1-2.082 1.375z" inkscape:connector-curvature="0"/>
      <path id="path440" style="fill-rule:evenodd;fill:#816f60" d="m8.902 33.006c0.934 0 1.762-0.164 2.481-0.496 0.453-0.211 1.121-0.399 2-0.563 0.64-0.117 1.066-0.305 1.281-0.566 1.332-1.672 1.785-2.672 1.359-3-0.187-0.188-0.335-0.317-0.441-0.387-0.105-0.047-0.465-0.176-1.078-0.391-0.641-0.234-1.27-0.351-1.883-0.351l-0.68 0.07-0.039-1.023c-0.027-0.848-0.011-1.684 0.039-2.508 0.403-4.942 0.602-7.481 0.602-7.625 0-0.68-0.242-1.27-0.719-1.762-0.508-0.496-0.933-0.414-1.281 0.246-0.266 0.516-0.309 1.07-0.121 1.66 0.32 0.918 0.492 1.575 0.519 1.977 0.055 0.75 0.082 1.777 0.082 3.07-0.054 1.34-0.082 2.199-0.082 2.578 0 0.469-0.066 1.106-0.199 1.903l-0.199 1.062c-1.441-0.094-2.387-0.144-2.84-0.144l-1.84 0.144 0.16-2.015c0-1.317-0.293-1.918-0.882-1.797-0.637 0.117-1.012 0.422-1.118 0.918-0.082 0.281-0.043 0.82 0.118 1.621 0.109 0.519 0.136 0.953 0.082 1.308l-0.082 0.387c-0.477 0.117-0.934 0.246-1.36 0.387-0.824 0.285-1.066 0.519-0.719 0.707l0.239 0.461c-0.078 0.281-0.094 0.586-0.039 0.918 0.105 0.656 0.453 1.14 1.039 1.445 1.656 0.824 2.828 1.344 3.523 1.555 0.61 0.164 1.305 0.234 2.078 0.211z" inkscape:connector-curvature="0"/>
      <g id="g442">
        <g id="g444">
          <g id="g450">
            <path id="path458" style="fill-rule:evenodd;fill:url(#linearGradient452)" d="m11.141 32.545c0.48-0.188 1.187-0.364 2.121-0.528 0.668-0.117 1.105-0.293 1.32-0.531 0.426-0.445 0.813-0.953 1.16-1.516 0.426-0.707 0.52-1.14 0.281-1.308-0.214-0.188-0.375-0.305-0.48-0.352s-0.481-0.175-1.121-0.386c-0.692-0.215-1.348-0.321-1.961-0.321l-0.719 0.071-0.039-0.954c-0.027-0.796-0.015-1.585 0.039-2.363 0.399-4.59 0.602-6.965 0.602-7.129 0-0.66-0.254-1.215-0.762-1.66-0.559-0.473-1.012-0.402-1.359 0.211-0.266 0.516-0.293 1.047-0.082 1.59 0.347 0.871 0.535 1.492 0.562 1.871 0.051 0.68 0.067 1.633 0.039 2.859-0.027 1.246-0.039 2.047-0.039 2.399 0 0.449-0.082 1.047-0.242 1.801l-0.238 0.988c-1.493-0.094-2.481-0.141-2.961-0.141l-1.961 0.141 0.203-1.906c0-1.223-0.32-1.778-0.961-1.661-0.668 0.118-1.055 0.403-1.16 0.848-0.082 0.258-0.039 0.766 0.121 1.52 0.105 0.492 0.133 0.906 0.078 1.234l-0.078 0.352c-0.508 0.097-0.977 0.214-1.402 0.355-0.879 0.281-1.145 0.504-0.801 0.668l0.242 0.426c-0.082 0.258-0.094 0.551-0.039 0.883 0.105 0.632 0.476 1.093 1.117 1.375 1.84 0.8 3.082 1.285 3.723 1.449 0.636 0.14 1.359 0.211 2.16 0.211 1.012-0.024 1.891-0.188 2.637-0.496z" inkscape:connector-curvature="0"/>
          </g>
        </g>
      </g>
      <path id="path460" style="fill-rule:evenodd;fill:#fffdf4" d="m4.184 31.631c0.16 0.093 0.332 0.164 0.519 0.211l0.238 0.07-0.039-0.106c-0.132-0.164-0.375-0.222-0.718-0.175z" inkscape:connector-curvature="0"/>
      <path id="path462" style="fill-rule:evenodd;fill:#fffdf4" d="m5.941 32.053 0.36 0.14 0.32 0.176h0.043c0.16-0.141 0.117-0.246-0.121-0.316-0.215-0.071-0.414-0.071-0.602 0z" inkscape:connector-curvature="0"/>
      <path id="path464" style="fill-rule:evenodd;fill:#fffdf4" d="m7.781 32.689c0.563 0.094 1.414 0.094 2.563 0 0.051-0.164 0.105-0.273 0.16-0.32l-0.442-0.07c-1.386-0.164-2.16-0.106-2.32 0.175-0.054 0.121-0.039 0.192 0.039 0.215z" inkscape:connector-curvature="0"/>
      <path id="path466" style="fill-rule:evenodd;fill:#fffdf4" d="m9.102 31.666c-0.079-0.024-0.239-0.024-0.481 0-0.266 0.023-0.414 0.058-0.437 0.105-0.11 0.117-0.094 0.223 0.039 0.317 0.105 0.07 0.254 0.117 0.441 0.14h0.68c0.051-0.304-0.028-0.492-0.242-0.562z" inkscape:connector-curvature="0"/>
      <path id="path468" style="fill-rule:evenodd;fill:#fffdf4" d="m7.141 31.17h-0.118l-0.281-0.106c-0.375-0.047-0.64 0.024-0.801 0.211 0.082 0.164 0.215 0.281 0.403 0.356l1.117-0.075c0-0.164-0.106-0.293-0.32-0.386z" inkscape:connector-curvature="0"/>
      <path id="path470" style="fill-rule:evenodd;fill:#fffdf4" d="m3.664 31.029 0.52 0.07c0.078-0.519-0.11-0.824-0.563-0.918l-0.797 0.071-0.043-0.106c-0.504 0-0.851 0.094-1.039 0.282 0.106 0.117 0.227 0.21 0.36 0.285l0.96-0.075 0.442 0.426 0.16-0.035z" inkscape:connector-curvature="0"/>
      <path id="path472" style="fill-rule:evenodd;fill:#fffdf4" d="m2.781 30.146 0.043 0.106 0.797-0.071h0.203c0.051-0.304-0.136-0.457-0.562-0.457s-0.586 0.141-0.481 0.422z" inkscape:connector-curvature="0"/>
      <path id="path474" style="fill-rule:evenodd;fill:#fffdf4" d="m2.621 29.193c-0.105-0.187-0.238-0.082-0.398 0.317l0.398-0.317z" inkscape:connector-curvature="0"/>
      <path id="path476" style="fill-rule:evenodd;fill:#fffdf4" d="m2.023 28.771-0.16-0.074-0.121 0.039-0.039 0.07 0.078 0.247c0.16 0 0.242-0.094 0.242-0.282z" inkscape:connector-curvature="0"/>
      <path id="path478" style="fill-rule:evenodd;fill:#fffdf4" d="m5.703 28.771c-0.265 0.141-0.281 0.282-0.039 0.422 0.184 0.094 0.41 0.152 0.68 0.176l0.437-0.176c0.133-0.047 0.215-0.14 0.242-0.281 0.051-0.117 0.024-0.227-0.082-0.32-0.078-0.071-0.293-0.071-0.64 0-0.293 0.046-0.492 0.105-0.598 0.179z" inkscape:connector-curvature="0"/>
      <path id="path480" style="fill-rule:evenodd;fill:#fffdf4" d="m6.941 29.724c0.028-0.144-0.039-0.214-0.199-0.214s-0.281 0.046-0.359 0.14l0.199 0.145 0.359-0.071z" inkscape:connector-curvature="0"/>
      <path id="path482" style="fill-rule:evenodd;fill:#fffdf4" d="m8.621 29.369c-0.133-0.024-0.277 0-0.437 0.07-0.161 0.047-0.243 0.141-0.243 0.285 0.133 0.094 0.321 0.141 0.563 0.141l0.238 0.035c0.16-0.07 0.227-0.164 0.199-0.285-0.05-0.117-0.16-0.199-0.32-0.246z" inkscape:connector-curvature="0"/>
      <path id="path484" style="fill-rule:evenodd;fill:#fffdf4" d="m9.062 30.603v-0.035h0.079l0.281-0.14c-0.078-0.118-0.227-0.176-0.442-0.176-0.21 0-0.371 0.058-0.476 0.176l0.238 0.355 0.32-0.18z" inkscape:connector-curvature="0"/>
      <path id="path486" style="fill-rule:evenodd;fill:#fffdf4" d="m11.141 31.029c0-0.211-0.133-0.332-0.399-0.351-0.187 0-0.398 0.035-0.64 0.105-0.028 0.141 0.105 0.234 0.402 0.281 0.133 0.047 0.32 0.082 0.558 0.106l0.079-0.141z" inkscape:connector-curvature="0"/>
      <path id="path488" style="fill-rule:evenodd;fill:#fffdf4" d="m12.344 31.556v0.145l0.558 0.211 0.559 0.035 0.519-0.391c-0.078-0.164-0.371-0.246-0.878-0.246-0.481 0-0.735 0.082-0.758 0.246z" inkscape:connector-curvature="0"/>
      <path id="path490" style="fill-rule:evenodd;fill:#fffdf4" d="m7.543 31.099c0.055-0.472-0.148-0.742-0.602-0.812-0.64 0-0.984 0.047-1.039 0.141-0.054 0.191 0.227 0.402 0.84 0.636l0.281 0.106h0.118l0.402-0.071z" inkscape:connector-curvature="0"/>
      <path id="path492" style="fill-rule:evenodd;fill:#fffdf4" d="m5.664 30.959c0.051-0.164-0.055-0.281-0.32-0.356-0.215-0.047-0.414-0.035-0.602 0.035-0.215 0.098-0.187 0.215 0.082 0.356 0.156 0.07 0.344 0.129 0.559 0.176l0.281-0.211z" inkscape:connector-curvature="0"/>
      <path id="path494" style="fill-rule:evenodd;fill:#fffdf4" d="m8.504 33.041c1.012-0.024 1.891-0.188 2.637-0.496 0.375-0.141 1.015-0.305 1.921-0.492l-0.16-0.141-0.558-0.211c-0.137-0.047-0.629-0.156-1.481-0.32-0.265-0.047-0.508-0.153-0.722-0.317-0.239-0.164-0.45-0.293-0.637-0.386-0.109-0.075-0.227-0.11-0.363-0.11h-0.079v0.035c-0.054 0.239 0.079 0.426 0.399 0.567 0.16 0.093 0.402 0.222 0.723 0.386 0.05 0.047 0.093 0.145 0.117 0.286l0.523 0.246c-0.109 0.047-0.215 0.14-0.32 0.281-0.055 0.047-0.109 0.156-0.16 0.32-1.149 0.094-2 0.094-2.563 0-0.398-0.023-0.785-0.129-1.16-0.32l-0.32-0.176-0.36-0.14c-0.132-0.047-0.464-0.094-1-0.141l-0.238-0.07c-0.187-0.047-0.359-0.118-0.519-0.211-0.321-0.239-0.547-0.426-0.68-0.567l-0.442-0.426-1.238 0.11c0.156 0.234 0.426 0.445 0.797 0.633 1.84 0.8 3.082 1.285 3.723 1.449 0.636 0.14 1.359 0.211 2.16 0.211z" inkscape:connector-curvature="0"/>
      <path id="path496" style="fill-rule:evenodd;fill:#fffdf4" d="m3.582 27.322-0.078 0.352-0.121 1.168c0.293-0.426 0.453-0.719 0.48-0.883v-0.883c0-0.473 0.039-0.754 0.117-0.848 0.055-0.117 0.176-0.234 0.364-0.351v-0.567c0.023-0.093 0.117-0.152 0.277-0.175 0.082-0.426 0.016-0.696-0.199-0.813-0.133-0.07-0.305-0.07-0.52 0-0.214 0.07-0.347 0.152-0.398 0.246-0.055 0.094-0.082 0.473-0.082 1.129l0.082 0.391c0.105 0.492 0.133 0.906 0.078 1.234z" inkscape:connector-curvature="0"/>
      <path id="path498" style="fill-rule:evenodd;fill:#fffdf4" d="m3.223 29.053 0.121 0.07 0.039-0.281-0.16 0.211z" inkscape:connector-curvature="0"/>
      <path id="path500" style="fill-rule:evenodd;fill:#fffdf4" d="m11.301 24.252c0-0.754-0.012-1.192-0.039-1.309-0.078-0.68-0.121-1.351-0.121-2.012l-0.079-2.257c0-0.118 0.04-0.293 0.122-0.532 0.078-0.234 0.117-0.422 0.117-0.562-0.051-0.211-0.067-0.367-0.039-0.461 0.027-0.094 0.082-0.234 0.16-0.422 0-0.496-0.215-0.777-0.641-0.848-0.293-0.046-0.504 0-0.64 0.141-0.211 0.449-0.211 0.93 0 1.449 0.347 0.778 0.535 1.375 0.562 1.801l0.039 1.164c0.16 0.684 0.238 1.199 0.238 1.551v1.098c0 0.562-0.039 1.128-0.117 1.691l-0.039 0.105c0.106-0.093 0.223-0.105 0.36-0.035l0.117-0.562z" inkscape:connector-curvature="0"/>
      <path id="path502" style="fill-rule:evenodd;fill:#d2c59a" d="m4.461 28.029c-0.023 0.34-0.051 0.606-0.078 0.793 0.031-0.184 0.168-0.375 0.398-0.582 0.215-0.187 0.426-0.305 0.641-0.352h1.558c1.735 0 2.708-0.011 2.922-0.035 0-0.027 0.039-0.109 0.121-0.25l0.039-0.316v-0.035h-0.039l-0.043 0.14-4.078 0.106c-0.238 0-0.425 0.047-0.558 0.14-0.16 0.094-0.27 0.145-0.321 0.145 0-0.168 0.094-0.355 0.278-0.566 0.137-0.707 0.187-1.379 0.16-2.012-0.023-1.082-0.332-1.578-0.918-1.485-0.16 0.024-0.348 0.083-0.563 0.176 0.348 0 0.629 0.11 0.844 0.321 0.078 0.07 0.145 0.246 0.199 0.527l0.118 1.168c0.027 0.422-0.118 0.879-0.438 1.375-0.133 0.187-0.215 0.437-0.242 0.742z" inkscape:connector-curvature="0"/>
      <path id="path504" style="fill-rule:evenodd;fill:#d2c59a" d="m11.703 28.345c-0.082 0.211-0.133 0.333-0.16 0.352 0.16-0.019 0.414 0.023 0.758 0.145l0.441-0.036c0.32-0.023 0.52 0.118 0.602 0.422 0.051 0.211 0.211 0.387 0.48 0.532 0.156 0.093 0.278 0.128 0.36 0.105l0.359-0.285c0.187-0.117 0.332-0.117 0.437 0 0.082 0.094 0.043 0.332-0.117 0.707 0 0.496 0.012 0.766 0.039 0.812 0.453-0.543 0.774-1.011 0.961-1.41l-0.601-0.601-0.321-0.461c-0.613-0.703-1.652-0.926-3.117-0.668 0 0.07-0.043 0.199-0.121 0.386z" inkscape:connector-curvature="0"/>
      <path id="path506" style="fill-rule:evenodd;fill:#d2c59a" d="m10.504 15.463 0.719 0.316 0.398 0.566c0.27 0.422 0.402 1.118 0.402 2.083l-0.082 3.742c0.266-3.18 0.403-4.825 0.403-4.942 0-0.566-0.215-1.074-0.641-1.519-0.426-0.469-0.828-0.555-1.199-0.246z" inkscape:connector-curvature="0"/>
      <path id="path508" style="fill-rule:evenodd;fill:#d2c59a" d="m1.301 28.697 0.121 0.18 0.32-0.141 0.121-0.039c0.239-0.043 0.598-0.07 1.078-0.07 0.215 0 0.348-0.059 0.403-0.176l0.078-0.777-0.039 0.035-0.039 0.074c-0.028 0.164-0.082 0.258-0.16 0.281-0.321-0.047-0.547-0.07-0.68-0.07h-0.242c-1.012 0.305-1.332 0.539-0.961 0.703z" inkscape:connector-curvature="0"/>
      <path id="path510" style="fill-rule:evenodd;fill:#a99f7b" d="m11.824 27.638v0.321c1.465-0.262 2.504-0.035 3.117 0.668l0.321 0.461 0.601 0.601c0.321-0.496 0.371-0.836 0.16-1.027-0.214-0.188-0.375-0.305-0.48-0.352s-0.481-0.175-1.121-0.386c-0.934-0.286-1.801-0.379-2.598-0.286z" inkscape:connector-curvature="0"/>
      <path id="path512" style="fill-rule:evenodd;fill:#a99f7b" d="m5.902 27.498 4.078-0.106 0.043-0.14-2.761-0.106-1.961 0.141v-0.07c-0.184 0.211-0.278 0.398-0.278 0.566 0.051 0 0.161-0.051 0.321-0.145 0.133-0.093 0.32-0.14 0.558-0.14z" inkscape:connector-curvature="0"/>
      <path id="path514" style="fill-rule:evenodd;fill:#a9985f" d="m3.184 28.064c0.078-0.023 0.132-0.117 0.16-0.281l0.039-0.074-1.121 0.285h0.242c0.133 0 0.359 0.023 0.68 0.07z" inkscape:connector-curvature="0"/>
    </g>
  </g>
<metadata><rdf:RDF><cc:Work><dc:format>image/svg+xml</dc:format><dc:type rdf:resource="http://purl.org/dc/dcmitype/StillImage"/><cc:license rdf:resource="http://creativecommons.org/licenses/publicdomain/"/><dc:publisher><cc:Agent rdf:about="http://openclipart.org/"><dc:title>Openclipart</dc:title></cc:Agent></dc:publisher></cc:Work><cc:License rdf:about="http://creativecommons.org/licenses/publicdomain/"><cc:permits rdf:resource="http://creativecommons.org/ns#Reproduction"/><cc:permits rdf:resource="http://creativecommons.org/ns#Distribution"/><cc:permits rdf:resource="http://creativecommons.org/ns#DerivativeWorks"/></cc:License></rdf:RDF></metadata></svg>
