<?xml version="1.0" encoding="UTF-8" standalone="no"?>
<!-- Generator: Adobe Illustrator 13.0.2, SVG Export Plug-In . SVG Version: 6.00 Build 14948)  -->

<svg
   xmlns:dc="http://purl.org/dc/elements/1.1/"
   xmlns:cc="http://creativecommons.org/ns#"
   xmlns:rdf="http://www.w3.org/1999/02/22-rdf-syntax-ns#"
   xmlns:svg="http://www.w3.org/2000/svg"
   xmlns="http://www.w3.org/2000/svg"
   xmlns:xlink="http://www.w3.org/1999/xlink"
   xmlns:sodipodi="http://sodipodi.sourceforge.net/DTD/sodipodi-0.dtd"
   xmlns:inkscape="http://www.inkscape.org/namespaces/inkscape"
   id="Layer_1"
   sodipodi:docname="gramzon-Hamburger-remix-monster-brain.svg"
   xml:space="preserve"
   sodipodi:version="0.32"
   viewBox="0 0 70.148 59.046"
   version="1.2"
   inkscape:output_extension="org.inkscape.output.svg.inkscape"
   y="0px"
   x="0px"
   inkscape:version="0.92.1 r15371"
   width="74.824539"
   height="62.982403"><title
     id="title5971">gramzon-Hamburger-remix-monster-brain</title><defs
     id="defs17"><linearGradient
       id="linearGradient4549"
       inkscape:collect="always"><stop
         id="stop4543"
         offset="0"
         style="stop-color:#81371d;stop-opacity:1" /><stop
         style="stop-color:#ba734e;stop-opacity:1"
         offset="0.13378587"
         id="stop4545" /><stop
         id="stop4551"
         offset="0.30766547"
         style="stop-color:#b06944;stop-opacity:1;" /><stop
         style="stop-color:#9a5a38;stop-opacity:1"
         offset="0.3936775"
         id="stop4555" /><stop
         style="stop-color:#a65f39;stop-opacity:1;"
         offset="0.49320251"
         id="stop4553" /><stop
         id="stop4547"
         offset="1"
         style="stop-color:#8c451d;stop-opacity:1" /></linearGradient><linearGradient
       inkscape:collect="always"
       id="linearGradient4529"><stop
         style="stop-color:#81371d;stop-opacity:1"
         offset="0"
         id="stop4525" /><stop
         id="stop4539"
         offset="0.12008864"
         style="stop-color:#ba734e;stop-opacity:1" /><stop
         style="stop-color:#8c451d;stop-opacity:1"
         offset="1"
         id="stop4527" /></linearGradient><linearGradient
       inkscape:collect="always"
       id="linearGradient4519"><stop
         style="stop-color:#9b4409;stop-opacity:1"
         offset="0"
         id="stop4515" /><stop
         style="stop-color:#f9da99;stop-opacity:1"
         offset="1"
         id="stop4517" /></linearGradient><linearGradient
       inkscape:collect="always"
       id="linearGradient4509"><stop
         style="stop-color:#d89450;stop-opacity:1;"
         offset="0"
         id="stop4505" /><stop
         id="stop4513"
         offset="0.89001369"
         style="stop-color:#eabb7b;stop-opacity:1;" /><stop
         style="stop-color:#f7d79b;stop-opacity:1"
         offset="1"
         id="stop4507" /></linearGradient><radialGradient
       inkscape:collect="always"
       xlink:href="#linearGradient4509"
       id="radialGradient4511"
       cx="37.859707"
       cy="-7.1948709"
       fx="37.859707"
       fy="-7.1948709"
       r="32.0995"
       gradientTransform="matrix(1.804669,-0.01250297,0.0058416,0.83182034,-30.259137,9.9732722)"
       gradientUnits="userSpaceOnUse" /><linearGradient
       inkscape:collect="always"
       xlink:href="#linearGradient4519"
       id="linearGradient4523"
       x1="35.029076"
       y1="62.230461"
       x2="36.621304"
       y2="39.231571"
       gradientUnits="userSpaceOnUse" /><linearGradient
       inkscape:collect="always"
       xlink:href="#linearGradient4529"
       id="linearGradient4531"
       x1="39.982681"
       y1="51.969414"
       x2="39.628853"
       y2="15.171199"
       gradientUnits="userSpaceOnUse" /><linearGradient
       inkscape:collect="always"
       xlink:href="#linearGradient4549"
       id="linearGradient4541"
       gradientUnits="userSpaceOnUse"
       x1="39.451939"
       y1="54.269302"
       x2="39.628853"
       y2="15.171199" /></defs><sodipodi:namedview
     id="base"
     bordercolor="#666666"
     inkscape:pageshadow="2"
     guidetolerance="10.0"
     pagecolor="#ffffff"
     gridtolerance="10.0"
     objecttolerance="10.0"
     borderopacity="1.0"
     inkscape:window-height="715"
     showgrid="false"
     inkscape:pageopacity="0.0"
     inkscape:window-width="1366"
     inkscape:snap-global="false"
     inkscape:zoom="3.7470784"
     inkscape:cx="7.6905355"
     inkscape:cy="38.590912"
     inkscape:window-x="-8"
     inkscape:window-y="-8"
     inkscape:window-maximized="1"
     inkscape:current-layer="Layer_1" /><g
     id="g3"
     style="fill:url(#linearGradient4531);fill-opacity:1"><path
       id="path5"
       d="M 15.059,55.811 C 9.704,53.837 5.761,51.116 4.12,47.845 H 4.117 L 3.98,47.566 C 3.3,46.167 2.994,44.068 2.862,42.15 2.695,41.911 2.542,41.668 2.401,41.422 L 2.363,41.361 C 1.847,40.54 1.402,39.368 1.071,37.968 0.742,36.571 0.536,34.95 0.536,33.258 0.536,32.237 0.611,31.189 0.782,30.149 0.25,28.612 0,26.932 0,25.306 10e-4,23.557 0.288,21.871 0.853,20.488 1.275,19.381 2.044,18.347 3.093,17.387 5.108,12.284 9.738,7.968 15.517,4.904 21.342,1.818 28.351,10e-4 35.124,0 c 6.916,0.001 14.083,1.801 19.983,4.919 5.854,3.097 10.48,7.499 12.298,12.805 0.859,0.854 1.502,1.764 1.877,2.732 0.573,1.39 0.865,3.088 0.866,4.851 -10e-4,1.63 -0.252,3.315 -0.786,4.855 0.169,1.036 0.244,2.079 0.244,3.098 0,1.692 -0.206,3.312 -0.534,4.71 -0.319,1.352 -0.746,2.492 -1.24,3.309 -0.04,1.035 -0.136,2.18 -0.312,3.265 -0.185,1.132 -0.448,2.195 -0.853,3.022 l -0.138,0.279 h -0.003 c -1.641,3.271 -5.583,5.992 -10.938,7.966 -5.521,2.026 -12.575,3.235 -20.265,3.235 -7.69,0 -14.743,-1.209 -20.264,-3.235 z"
       inkscape:connector-curvature="0"
       style="fill:url(#linearGradient4541);fill-opacity:1" /></g><path
     id="path7"
     d="M 66.160628,13.302782 C 64.263759,10.562321 61.548798,8.1176987 58.313523,6.0836722 51.839794,2.0103552 43.284808,-0.4174217 35.12403,-0.41531608 29.008481,-0.41636888 22.666155,1.0186094 17.147219,3.5021852 11.627222,5.9826025 6.9337952,9.5147761 4.0884912,13.657578 c -1.8989889,2.763623 -2.9798865,5.788343 -2.9809462,8.98467 0.00106,0.986481 0.325329,1.901373 0.9452555,2.785731 0.618867,0.882255 1.5386897,1.721343 2.6948263,2.500422 0.043448,0.02842 0.087955,0.05685 0.1314032,0.08528 0.2278362,-0.06422 0.4588517,-0.09265 0.6856282,-0.09265 0.9261809,0.0073 1.7845408,0.429546 2.5835573,0.875936 0.793718,0.450602 1.5397488,0.947529 2.0971525,1.17704 0.403747,0.172662 1.104212,0.315844 1.816333,0.51693 0.711061,0.207403 1.461331,0.466394 2.015556,1.026489 0.129284,0.129495 0.242672,0.281099 0.335926,0.448496 7.071402,1.963488 15.329672,2.891012 20.391876,2.888907 3.417544,0 8.335629,-0.24741 13.385116,-0.958056 2.601572,-0.365324 5.239175,-0.854881 7.723119,-1.493936 0.121866,-0.417965 0.321091,-0.780131 0.5733,-1.077023 0.333807,-0.395856 0.75239,-0.676956 1.190048,-0.886465 0.877434,-0.416912 1.854481,-0.575886 2.628064,-0.758022 0.911345,-0.211615 1.545048,-0.488503 2.224318,-0.774868 0.676091,-0.28531 1.399868,-0.579045 2.397049,-0.759075 l 0.01696,-0.0032 0.01907,-0.0021 c 0.01483,-0.0021 0.06782,-0.0073 0.148358,-0.0073 0.0657,0 0.147299,0.0032 0.245852,0.0221 0.08266,0.01895 0.183328,0.04212 0.297776,0.116862 1.057584,-0.782237 1.909586,-1.643435 2.497721,-2.58254 0.640061,-1.018065 0.986584,-2.122462 0.987644,-3.363723 0,-3.252127 -1.081958,-6.28211 -2.978827,-9.024677 z"
     inkscape:connector-curvature="0"
     style="fill:url(#radialGradient4511);fill-opacity:1;stroke-width:1.05625057" /><path
     id="path9"
     d="m 35.073,52.212 c -14.285,0 -27.5878771,-4.087097 -32.2928771,-9.651097 0.034,0.392 0.077,0.787 0.13,1.177 0.152,1.128 0.392,2.208 0.714,2.982 h 0.007 l 0.133,0.295 C 5.0961229,50.001903 9.669,53.841 15.059,55.811 c 5.384,1.978 12.335,3.175 19.92,3.175 7.585,0 14.537,-1.197 19.92,-3.175 5.39,-1.971 10.158,-4.684 11.49,-7.671 l 0.133,-0.295 h 0.007 c 0.322,-0.774 0.562,-1.854 0.715,-2.982 0.085,-0.625 0.145,-1.266 0.184,-1.884 -4.242,5.932 -17.471,9.233 -32.355,9.233 z"
     inkscape:connector-curvature="0"
     style="fill:url(#linearGradient4523);fill-opacity:1"
     sodipodi:nodetypes="sccccccsccccccs" /><path
     id="path11"
     d="m 67.87,32.146 c -0.128,0.203 -0.263,0.399 -0.406,0.588 h -0.002 c -3.899,5.715 -16.922,9.912 -32.388,9.912 -15.47,0 -28.495,-4.199 -32.391,-9.917 -0.144,-0.188 -0.279,-0.385 -0.407,-0.588 2.173,6.249 12.018,11.26 24.77,12.766 0.029,-0.097 0.071,-0.182 0.116,-0.255 0.081,-0.129 0.175,-0.232 0.272,-0.324 0.196,-0.183 0.407,-0.319 0.581,-0.414 0.454,-0.246 0.926,-0.328 1.374,-0.327 0.278,0 0.551,0.029 0.825,0.067 1.482,0.205 2.822,0.583 4.179,0.704 0.203,0.019 0.411,0.027 0.622,0.027 1.177,0.001 2.457,-0.266 3.635,-0.435 0.558,-0.078 1.398,-0.237 2.229,-0.238 0.686,0.004 1.398,0.098 1.96,0.555 l 0.212,0.177 -0.036,0.273 c -0.01,0.071 -0.025,0.14 -0.046,0.205 C 55.78,43.437 65.685,38.415 67.87,32.146 Z"
     inkscape:connector-curvature="0"
     style="fill:#ebe7d8;fill-opacity:1" /><g
     id="g13"
     transform="matrix(1.0303199,0,0,1.0303199,-1.0363827,-1.1876585)"
     style="fill:#fdd835"><path
       id="path15"
       d="m 5.834,30.029 c -0.172,0.245 -0.296,0.5 -0.44,1.137 -0.061,0.266 -0.164,0.521 -0.246,0.777 -0.084,0.253 -0.143,0.5 -0.141,0.673 0,0.033 0.002,0.062 0.005,0.091 0.032,0.263 0.106,0.472 0.206,0.721 0.052,0.131 0.112,0.272 0.168,0.43 0.133,-0.055 0.28,-0.14 0.443,-0.25 0.314,-0.207 0.659,-0.49 1.093,-0.69 0.814,-0.37 1.672,-0.627 2.583,-0.666 0.309,-0.014 0.621,-0.021 0.934,-0.021 0.788,0 1.577,0.041 2.316,0.122 0.742,0.087 1.481,0.333 2.076,0.327 h 0.003 C 14.82,32.469 14.761,32.318 14.669,32.178 14.564,32.02 14.4,31.876 14.18,31.746 13.74,31.484 13.086,31.307 12.455,31.147 12.033,31.038 11.622,30.936 11.26,30.785 10.587,30.499 9.885,30.015 9.175,29.614 8.47,29.208 7.768,28.906 7.231,28.913 c -0.173,0 -0.33,0.026 -0.48,0.084 l -0.097,0.061 c -0.386,0.474 -0.655,0.735 -0.82,0.971 z"
       inkscape:connector-curvature="0"
       style="fill:#fdd835" /></g><g
     id="g17"
     transform="matrix(1.0303199,0,0,1.0303199,-1.0363827,-1.1876585)"
     style="fill:#fdd835"><path
       id="path19"
       d="m 56.848,32.755 c 0.955,0.191 1.744,0.664 2.511,1.018 0.329,0.152 0.867,0.412 1.458,0.632 0.588,0.221 1.232,0.393 1.703,0.39 0.209,10e-4 0.377,-0.032 0.494,-0.084 0.119,-0.055 0.191,-0.116 0.258,-0.229 0.034,-0.043 0.089,-0.279 0.084,-0.578 0,-0.344 -0.048,-0.77 -0.101,-1.17 -0.052,-0.403 -0.109,-0.771 -0.121,-1.067 -0.003,-0.076 -0.005,-0.16 -0.005,-0.249 0.001,-0.414 0.025,-0.955 0.051,-1.448 0.015,-0.307 0.03,-0.599 0.039,-0.815 -0.729,0.152 -1.264,0.371 -1.843,0.617 -0.63,0.267 -1.311,0.567 -2.262,0.789 -0.579,0.135 -1.203,0.252 -1.754,0.438 -0.553,0.186 -1.014,0.436 -1.312,0.793 -0.199,0.239 -0.343,0.529 -0.407,0.94 v 0.002 c 0.146,-0.008 0.366,-0.031 0.622,-0.032 0.178,-10e-4 0.375,0.011 0.585,0.053 z"
       inkscape:connector-curvature="0"
       style="fill:#fdd835" /></g><g
     id="g21"
     transform="matrix(1.0303199,0,0,1.0303199,-1.0363827,-1.1876585)"
     style="fill:#fdd835"><path
       id="path23"
       d="m 30.64,45.955 c 0.715,0.471 1.332,1.051 1.824,1.581 0.378,0.408 0.881,0.897 1.424,1.272 0.542,0.378 1.117,0.625 1.615,0.621 0.197,-0.001 0.386,-0.035 0.578,-0.114 0.467,-0.188 0.979,-0.659 1.472,-1.213 0.497,-0.553 0.975,-1.172 1.485,-1.645 0.408,-0.368 0.938,-0.599 1.451,-0.837 0.512,-0.231 1.008,-0.464 1.279,-0.689 0.034,-0.028 0.065,-0.056 0.092,-0.082 -0.259,-0.093 -0.601,-0.141 -0.983,-0.138 -0.704,-10e-4 -1.498,0.144 -2.088,0.229 -1.132,0.159 -2.455,0.442 -3.775,0.444 -0.238,0 -0.476,-0.01 -0.713,-0.031 -1.479,-0.137 -2.831,-0.52 -4.225,-0.71 -0.252,-0.035 -0.481,-0.058 -0.688,-0.058 -0.337,0.002 -0.61,0.054 -0.9,0.208 -0.08,0.043 -0.193,0.115 -0.289,0.191 -0.031,0.025 -0.061,0.051 -0.086,0.076 l 0.097,0.006 c 0.896,0.056 1.715,0.42 2.43,0.889 z"
       inkscape:connector-curvature="0"
       style="fill:#fdd835" /></g><metadata
     id="metadata14"><rdf:RDF><cc:Work><dc:format>image/svg+xml</dc:format><dc:type
           rdf:resource="http://purl.org/dc/dcmitype/StillImage" /><cc:license
           rdf:resource="http://creativecommons.org/licenses/publicdomain/" /><dc:publisher><cc:Agent
             rdf:about="http://openclipart.org/"><dc:title>Openclipart</dc:title></cc:Agent></dc:publisher><dc:title>gramzon-Hamburger-remix-monster-brain</dc:title><dc:date>2009-06-12T16:32:40</dc:date><dc:description>A hamburger in monochrome.</dc:description><dc:source>https://openclipart.org/detail/26558/hamburger-by-gramzon</dc:source><dc:creator><cc:Agent><dc:title>gramzon</dc:title></cc:Agent></dc:creator><dc:subject><rdf:Bag><rdf:li>bun</rdf:li><rdf:li>burger</rdf:li><rdf:li>cheese</rdf:li><rdf:li>fast food</rdf:li><rdf:li>food</rdf:li><rdf:li>hamburger</rdf:li><rdf:li>meat</rdf:li><rdf:li>monochrome</rdf:li></rdf:Bag></dc:subject></cc:Work><cc:License
         rdf:about="http://creativecommons.org/licenses/publicdomain/"><cc:permits
           rdf:resource="http://creativecommons.org/ns#Reproduction" /><cc:permits
           rdf:resource="http://creativecommons.org/ns#Distribution" /><cc:permits
           rdf:resource="http://creativecommons.org/ns#DerivativeWorks" /></cc:License></rdf:RDF></metadata><g
     id="g5920"><path
       inkscape:connector-curvature="0"
       id="path4561"
       d="m 46.528191,2.01294 -2.131618,0.7651961 c 0,0 2.732844,2.6235296 2.732844,2.2955886 0,-0.3279413 -0.601226,-3.0607847 -0.601226,-3.0607847 z"
       style="fill:#fff3e0;stroke:none;stroke-width:0.57927197px;stroke-linecap:butt;stroke-linejoin:miter;stroke-opacity:1" /><use
       height="100%"
       width="100%"
       y="0"
       x="0"
       transform="matrix(0.96152605,-0.04123918,0.04123918,0.96152605,0.64845401,13.655984)"
       xlink:href="#path4561"
       inkscape:spray-origin="#path4561"
       id="use5767" /><path
       style="fill:#fff3e0;stroke:none;stroke-width:0.57224995px;stroke-linecap:butt;stroke-linejoin:miter;stroke-opacity:1"
       d="m 49.151438,7.1644565 1.754673,0.979251 -1.705507,0.855897 z"
       id="use5769"
       inkscape:connector-curvature="0" /><path
       style="fill:#fff3e0;stroke:none;stroke-width:0.64108491px;stroke-linecap:butt;stroke-linejoin:miter;stroke-opacity:1"
       d="m 45.110422,9.3986978 2.189859,-0.521683 -0.758639,1.9986232 z"
       id="use5771"
       inkscape:connector-curvature="0" /><use
       height="100%"
       width="100%"
       y="0"
       x="0"
       transform="matrix(0.05915703,1.0059216,-1.0059216,0.05915703,42.003372,-37.397288)"
       xlink:href="#path4561"
       inkscape:spray-origin="#path4561"
       id="use5777" /><path
       style="fill:#fff3e0;stroke:none;stroke-width:0.62039214px;stroke-linecap:butt;stroke-linejoin:miter;stroke-opacity:1"
       d="M 16.87756,4.5016725 19.055948,4.4818355 17.9092,6.2036743 Z"
       id="use5779"
       inkscape:connector-curvature="0" /><path
       style="fill:#fff3e0;stroke:none;stroke-width:0.52916884px;stroke-linecap:butt;stroke-linejoin:miter;stroke-opacity:1"
       d="m 14.444704,20.016905 1.239049,-1.384733 0.426667,1.712205 z"
       id="use5781"
       inkscape:connector-curvature="0" /><path
       style="fill:#fff3e0;stroke:none;stroke-width:0.61589348px;stroke-linecap:butt;stroke-linejoin:miter;stroke-opacity:1"
       d="m 4.9149014,19.023589 1.8944125,1.543308 -0.135311,-2.556002 z"
       id="use5783"
       inkscape:connector-curvature="0" /><use
       height="100%"
       width="100%"
       y="0"
       x="0"
       transform="matrix(0.71693351,-0.58017096,0.58017096,0.71693351,-23.202649,36.134694)"
       xlink:href="#path4561"
       inkscape:spray-origin="#path4561"
       id="use5785" /><path
       style="fill:#fff3e0;stroke:none;stroke-width:0.63536376px;stroke-linecap:butt;stroke-linejoin:miter;stroke-opacity:1"
       d="m 31.93902,24.346105 2.156137,-0.573291 -0.700104,1.999668 z"
       id="use5787"
       inkscape:connector-curvature="0" /><path
       style="fill:#fff3e0;stroke:none;stroke-width:0.61626858px;stroke-linecap:butt;stroke-linejoin:miter;stroke-opacity:1"
       d="m 30.351704,20.530844 2.060845,-0.66016 -0.581018,1.97116 z"
       id="use5789"
       inkscape:connector-curvature="0" /><use
       height="100%"
       width="100%"
       y="0"
       x="0"
       transform="matrix(0.44673321,-0.83755794,0.83755794,0.44673321,15.213173,63.123019)"
       xlink:href="#path4561"
       inkscape:spray-origin="#path4561"
       id="use5791" /><path
       style="fill:#fff3e0;stroke:none;stroke-width:0.61749572px;stroke-linecap:butt;stroke-linejoin:miter;stroke-opacity:1"
       d="m 41.22394,21.400707 2.434088,0.277341 -1.497451,-2.084039 z"
       id="use5793"
       inkscape:connector-curvature="0" /><use
       height="100%"
       width="100%"
       y="0"
       x="0"
       transform="matrix(0.20938427,0.91793745,-0.91793745,0.20938427,45.503358,-17.249281)"
       xlink:href="#path4561"
       inkscape:spray-origin="#path4561"
       id="use5795" /><path
       style="fill:#fff3e0;stroke:none;stroke-width:0.61651188px;stroke-linecap:butt;stroke-linejoin:miter;stroke-opacity:1"
       d="m 59.337534,19.474079 -1.71619,-1.319577 1.952321,-0.644078 z"
       id="use5799"
       inkscape:connector-curvature="0" /><path
       style="fill:#fff3e0;stroke:none;stroke-width:0.6253463px;stroke-linecap:butt;stroke-linejoin:miter;stroke-opacity:1"
       d="m 61.031745,21.497947 -2.475489,-0.165038 1.613731,2.037148 z"
       id="use5801"
       inkscape:connector-curvature="0" /><use
       height="100%"
       width="100%"
       y="0"
       x="0"
       transform="matrix(0.80386292,0.64310741,-0.64310741,0.80386292,23.131117,-8.5057436)"
       xlink:href="#path4561"
       inkscape:spray-origin="#path4561"
       id="use5803" /><use
       height="100%"
       width="100%"
       y="0"
       x="0"
       transform="matrix(0.7679799,-0.57419438,0.57419438,0.7679799,17.309809,45.255086)"
       xlink:href="#path4561"
       inkscape:spray-origin="#path4561"
       id="use5809" /><use
       height="100%"
       width="100%"
       y="0"
       x="0"
       transform="matrix(0.40921735,-0.90878352,0.90878352,0.40921735,26.707287,56.696869)"
       xlink:href="#path4561"
       inkscape:spray-origin="#path4561"
       id="use5813" /><path
       style="fill:#fff3e0;stroke:none;stroke-width:0.61161697px;stroke-linecap:butt;stroke-linejoin:miter;stroke-opacity:1"
       d="m 25.024254,13.218693 0.543412,-2.077786 1.34227,1.535536 z"
       id="use5815"
       inkscape:connector-curvature="0" /><use
       height="100%"
       width="100%"
       y="0"
       x="0"
       transform="matrix(0.44343419,0.99331426,-0.99331426,0.44343419,21.157229,-29.515693)"
       xlink:href="#path4561"
       inkscape:spray-origin="#path4561"
       id="use5817" /><use
       height="100%"
       width="100%"
       y="0"
       x="0"
       transform="matrix(0.804406,-0.71838384,0.71838384,0.804406,-19.812317,55.718081)"
       xlink:href="#path4561"
       inkscape:spray-origin="#path4561"
       id="use5819" /><use
       height="100%"
       width="100%"
       y="0"
       x="0"
       transform="matrix(0.99454111,0.18306149,-0.18306149,0.99454111,-27.547064,0.23757602)"
       xlink:href="#path4561"
       inkscape:spray-origin="#path4561"
       id="use5821" /><path
       style="fill:#fff3e0;stroke:none;stroke-width:0.56764019px;stroke-linecap:butt;stroke-linejoin:miter;stroke-opacity:1"
       d="m 12.641515,24.175708 -0.457191,-1.940102 1.76801,0.676036 z"
       id="use5823"
       inkscape:connector-curvature="0" /><use
       height="100%"
       width="100%"
       y="0"
       x="0"
       transform="matrix(0.94648487,-0.32988878,0.32988878,0.94648487,-21.570933,31.443312)"
       xlink:href="#path4561"
       inkscape:spray-origin="#path4561"
       id="use5825" /><path
       style="fill:#fff3e0;stroke:none;stroke-width:0.53510255px;stroke-linecap:butt;stroke-linejoin:miter;stroke-opacity:1"
       d="m 26.802222,8.6603643 0.138745,2.1184167 1.546304,-1.5982297 z"
       id="use5827"
       inkscape:connector-curvature="0" /><path
       style="fill:#fff3e0;stroke:none;stroke-width:0.54311764px;stroke-linecap:butt;stroke-linejoin:miter;stroke-opacity:1"
       d="m 28.523733,6.1198622 1.068737,1.8710316 0.699969,-2.145854 z"
       id="use5829"
       inkscape:connector-curvature="0" /><path
       style="fill:#fff3e0;stroke:none;stroke-width:0.56850636px;stroke-linecap:butt;stroke-linejoin:miter;stroke-opacity:1"
       d="M 26.787971,5.2643524 26.493839,3.2898557 28.201866,4.1123376 Z"
       id="use5833"
       inkscape:connector-curvature="0" /><use
       height="100%"
       width="100%"
       y="0"
       x="0"
       transform="matrix(0.27961911,0.89931055,-0.89931055,0.27961911,13.215355,-37.448132)"
       xlink:href="#path4561"
       inkscape:spray-origin="#path4561"
       id="use5835" /><use
       height="100%"
       width="100%"
       y="0"
       x="0"
       transform="matrix(1.074108,0.16186738,-0.16186738,1.074108,-5.846618,-7.0043417)"
       xlink:href="#path4561"
       inkscape:spray-origin="#path4561"
       id="use5839" /><path
       style="fill:#fff3e0;stroke:none;stroke-width:0.5725041px;stroke-linecap:butt;stroke-linejoin:miter;stroke-opacity:1"
       d="m 56.238202,10.996137 -0.796893,2.126956 2.211267,-0.878166 z"
       id="use5843"
       inkscape:connector-curvature="0" /><path
       style="fill:#fff3e0;stroke:none;stroke-width:0.59348309px;stroke-linecap:butt;stroke-linejoin:miter;stroke-opacity:1"
       d="m 46.898082,8.9938974 2.069971,0.241317 -1.294052,1.4973226 z"
       id="use5847"
       inkscape:connector-curvature="0" /><path
       style="fill:#fff3e0;stroke:none;stroke-width:0.59473866px;stroke-linecap:butt;stroke-linejoin:miter;stroke-opacity:1"
       d="m 53.491139,7.8653501 2.060225,1.1502 -0.55704,-2.408075 z"
       id="use5849"
       inkscape:connector-curvature="0" /></g><path
     id="path456"
     style="fill:#8abd4d;fill-rule:evenodd;stroke-width:1.25"
     d="m 43.616608,33.409757 c 0.535867,-0.430845 1.091913,-0.606986 1.670655,-0.534279 0.281264,0.05955 0.678488,0.162823 1.188305,0.32571 0.484392,0.04762 0.994209,0.210505 1.532371,0.468833 0.377873,0.08001 1.380597,-0.226435 3.008359,-0.914176 0.544204,-0.234868 0.922707,-0.254389 1.127207,-0.0616 0.261068,0.154938 0.301821,0.433164 0.11633,0.838533 -0.06059,0.286156 -0.339731,0.45193 -0.842248,0.489913 -0.599197,0.0239 -1.094413,0.262752 -1.490871,0.723114 -0.391566,0.461399 -0.946353,1.331604 -1.66095,2.612616 -0.574836,1.06145 -0.968283,1.646388 -1.189607,1.750296 -0.225236,0.146523 -0.546067,0.0083 -0.947415,-0.425475 -0.511241,-0.602721 -0.932877,-1.08553 -1.250938,-1.448025 -0.344781,-0.471647 -0.927625,-0.615497 -1.75669,-0.447332 -0.844628,0.265809 -1.421248,0.418428 -1.727787,0.448074 -0.359252,0.07343 -0.702569,-0.04909 -1.029951,-0.367565 C 40.191768,36.737511 39.794374,36.279 39.169314,35.507799 38.814694,35.082622 38.01853,34.74539 36.79075,34.48543 l -1.736225,-0.218122 c 0.307575,-0.03454 1.035518,-0.105287 2.195022,-0.204765 0.815111,-0.126399 1.446318,-0.162688 1.881981,-0.120275 1.411251,0.09948 2.137242,0.158648 2.184935,0.168746 0.949572,-0.04938 1.716585,-0.28051 2.300145,-0.701257 z"
     inkscape:connector-curvature="0" /><path
     id="path464"
     style="fill:#719b3f;fill-rule:evenodd;stroke-width:1.25"
     d="m 42.161013,35.02835 c -0.0275,-0.105483 -0.260152,-0.279959 -0.703116,-0.523241 l -0.667186,-0.361031 1.212116,-0.112615 0.849908,0.179952 c 0.377873,0.08001 1.220481,0.05909 2.533161,-0.05779 l 2.852379,0.528555 c 0.368118,0.05367 0.817301,-0.01605 1.339552,-0.195516 -0.644143,0.423252 -1.065711,0.718584 -1.264892,0.880845 -0.245431,0.241908 -0.538647,0.329317 -0.868827,0.259408 l -0.394048,-0.232925 0.02268,0.598937 0.211158,1.452748 c -0.333051,-0.315838 -0.563944,-0.733985 -0.697312,-1.256697 -0.155917,-0.675702 -0.684287,-1.107003 -1.581888,-1.297054 -0.33018,-0.06991 -0.712853,-0.0066 -1.154983,0.19882 l -0.500395,0.263309 0.681428,0.293772 c 0.462901,0.149119 0.800194,0.414747 1.013031,0.803516 L 44.71962,36.238332 c -0.11799,-0.124643 -0.375733,-0.20477 -0.763963,-0.235862 -0.721819,-0.103002 -1.127846,-0.164694 -1.21834,-0.183855 -0.335072,-0.07095 -0.52399,-0.210606 -0.580206,-0.421832 z"
     inkscape:connector-curvature="0" /><path
     sodipodi:nodetypes="ccczc"
     inkscape:connector-curvature="0"
     id="path5952"
     d="m 22.937621,40.656736 c 0.191265,1.04556 5.076815,1.876023 11.041259,1.876831 5.963023,-0.0011 10.846379,-0.831519 11.037596,-1.876831 0,0 -7.234002,0.264423 -10.916203,0.265372 -3.682201,9.37e-4 -11.162652,-0.265372 -11.162652,-0.265372 z"
     style="fill:#961e00;fill-opacity:1;fill-rule:nonzero;stroke:none;stroke-width:8.36478138;stroke-miterlimit:4;stroke-dasharray:none;stroke-opacity:1" /><path
     sodipodi:nodetypes="csccscc"
     inkscape:connector-curvature="0"
     id="path5950"
     d="m 22.830285,41.344709 c 0,0 3.537529,2.141833 11.981606,1.829089 8.444078,-0.312743 10.392519,-1.214334 10.392519,-1.214334 l -0.04423,-1.177694 c 0,0 -8.01962,1.635617 -10.409537,1.653477 -7.949659,0.05941 -11.732713,-2.153866 -11.732713,-2.153866 z"
     style="fill:#dd2c00;stroke:none;stroke-width:0.93749994px;stroke-linecap:butt;stroke-linejoin:miter;stroke-opacity:1" /><g
     id="g5936"
     transform="matrix(-0.99191516,0.12690285,0.12690285,0.99191516,62.160811,-9.5339396)"><path
       id="path5932"
       style="fill:#8abd4d;fill-rule:evenodd;stroke-width:1.25"
       d="m 44.521584,36.989717 c 0.435,-0.5325 0.9425,-0.82 1.52375,-0.86875 0.2875,0 0.6975,0.01875 1.23,0.0725 0.48375,-0.05375 1.01625,0 1.59625,0.14125 0.38625,0 1.30375,-0.5075 2.75375,-1.5175 0.48375,-0.3425 0.85,-0.44 1.09,-0.29375 0.2875,0.0975 0.385,0.36125 0.2875,0.79625 0,0.2925 -0.23875,0.5125 -0.7225,0.65375 -0.58125,0.1475 -1.01625,0.48375 -1.30875,1.01625 -0.2875,0.5325 -0.65,1.49875 -1.08375,2.9 -0.3425,1.1575 -0.60625,1.81125 -0.80125,1.95875 -0.19,0.19 -0.5325,0.12125 -1.015,-0.22 -0.625,-0.48375 -1.1375,-0.86875 -1.52375,-1.1575 -0.435,-0.39 -1.035,-0.41 -1.81125,-0.07375 -0.77125,0.435 -1.30375,0.70375 -1.5975,0.79625 -0.33625,0.14625 -0.6975,0.0975 -1.08375,-0.14625 -0.195,-0.0925 -0.67875,-0.45875 -1.45,-1.08375 -0.435,-0.3425 -1.28375,-0.5075 -2.53875,-0.5075 l -1.74375,0.14625 c 0.29375,-0.0975 0.99125,-0.3175 2.105,-0.655 0.77125,-0.2925 1.38125,-0.45875 1.81625,-0.5075 1.40125,-0.195 2.12375,-0.2875 2.1725,-0.2875 0.91875,-0.245 1.62125,-0.63 2.105,-1.1625 z"
       inkscape:connector-curvature="0" /><path
       id="path5934"
       style="fill:#719b3f;fill-rule:evenodd;stroke-width:1.25"
       d="m 43.432834,38.874717 c -0.04875,-0.0975 -0.3125,-0.22 -0.79625,-0.36625 l -0.7275,-0.215 1.1625,-0.36125 h 0.86875 c 0.38625,0 1.20625,-0.195 2.46625,-0.58125 l 2.9,-0.07375 c 0.37125,-0.02375 0.79625,-0.185 1.27,-0.46875 -0.5425,0.5475 -0.89375,0.92375 -1.055,1.12375 -0.19,0.2875 -0.45875,0.43375 -0.79625,0.43375 l -0.43375,-0.14625 0.14625,0.58125 0.5075,1.3775 c -0.39125,-0.24 -0.70375,-0.60125 -0.9425,-1.085 -0.2925,-0.62875 -0.89875,-0.94125 -1.81625,-0.94125 -0.3375,0 -0.69875,0.14125 -1.08875,0.43375 l -0.435,0.36125 0.7275,0.14625 c 0.48375,0.05 0.86875,0.24 1.1575,0.57625 l -0.36125,-0.14125 c -0.14125,-0.0975 -0.41,-0.1225 -0.79625,-0.0725 -0.7275,0.04875 -1.1375,0.0725 -1.23,0.0725 -0.3425,0 -0.55625,-0.0975 -0.655,-0.2925 z"
       inkscape:connector-curvature="0" /></g><g
     transform="matrix(-0.67871337,-0.15358689,-0.15358689,0.67871337,42.569537,9.3274393)"
     id="g5942"><path
       inkscape:connector-curvature="0"
       d="m 44.521584,36.989717 c 0.435,-0.5325 0.9425,-0.82 1.52375,-0.86875 0.2875,0 0.6975,0.01875 1.23,0.0725 0.48375,-0.05375 1.01625,0 1.59625,0.14125 0.38625,0 1.30375,-0.5075 2.75375,-1.5175 0.48375,-0.3425 0.85,-0.44 1.09,-0.29375 0.2875,0.0975 0.385,0.36125 0.2875,0.79625 0,0.2925 -0.23875,0.5125 -0.7225,0.65375 -0.58125,0.1475 -1.01625,0.48375 -1.30875,1.01625 -0.2875,0.5325 -0.65,1.49875 -1.08375,2.9 -0.3425,1.1575 -0.60625,1.81125 -0.80125,1.95875 -0.19,0.19 -0.5325,0.12125 -1.015,-0.22 -0.625,-0.48375 -1.1375,-0.86875 -1.52375,-1.1575 -0.435,-0.39 -1.035,-0.41 -1.81125,-0.07375 -0.77125,0.435 -1.30375,0.70375 -1.5975,0.79625 -0.33625,0.14625 -0.6975,0.0975 -1.08375,-0.14625 -0.195,-0.0925 -0.67875,-0.45875 -1.45,-1.08375 -0.435,-0.3425 -1.28375,-0.5075 -2.53875,-0.5075 l -1.74375,0.14625 c 0.29375,-0.0975 0.99125,-0.3175 2.105,-0.655 0.77125,-0.2925 1.38125,-0.45875 1.81625,-0.5075 1.40125,-0.195 2.12375,-0.2875 2.1725,-0.2875 0.91875,-0.245 1.62125,-0.63 2.105,-1.1625 z"
       style="fill:#8abd4d;fill-rule:evenodd;stroke-width:1.25"
       id="path5938" /><path
       inkscape:connector-curvature="0"
       d="m 43.432834,38.874717 c -0.04875,-0.0975 -0.3125,-0.22 -0.79625,-0.36625 l -0.7275,-0.215 1.1625,-0.36125 h 0.86875 c 0.38625,0 1.20625,-0.195 2.46625,-0.58125 l 2.9,-0.07375 c 0.37125,-0.02375 0.79625,-0.185 1.27,-0.46875 -0.5425,0.5475 -0.89375,0.92375 -1.055,1.12375 -0.19,0.2875 -0.45875,0.43375 -0.79625,0.43375 l -0.43375,-0.14625 0.14625,0.58125 0.5075,1.3775 c -0.39125,-0.24 -0.70375,-0.60125 -0.9425,-1.085 -0.2925,-0.62875 -0.89875,-0.94125 -1.81625,-0.94125 -0.3375,0 -0.69875,0.14125 -1.08875,0.43375 l -0.435,0.36125 0.7275,0.14625 c 0.48375,0.05 0.86875,0.24 1.1575,0.57625 l -0.36125,-0.14125 c -0.14125,-0.0975 -0.41,-0.1225 -0.79625,-0.0725 -0.7275,0.04875 -1.1375,0.0725 -1.23,0.0725 -0.3425,0 -0.55625,-0.0975 -0.655,-0.2925 z"
       style="fill:#719b3f;fill-rule:evenodd;stroke-width:1.25"
       id="path5940" /></g><g
     id="g5948"
     transform="matrix(-0.39404281,0.57355996,0.57355996,0.39404281,62.482342,-14.101735)"><path
       id="path5944"
       style="fill:#8abd4d;fill-rule:evenodd;stroke-width:1.25"
       d="m 44.521584,36.989717 c 0.435,-0.5325 0.9425,-0.82 1.52375,-0.86875 0.2875,0 0.6975,0.01875 1.23,0.0725 0.48375,-0.05375 1.01625,0 1.59625,0.14125 0.38625,0 1.30375,-0.5075 2.75375,-1.5175 0.48375,-0.3425 0.85,-0.44 1.09,-0.29375 0.2875,0.0975 0.385,0.36125 0.2875,0.79625 0,0.2925 -0.23875,0.5125 -0.7225,0.65375 -0.58125,0.1475 -1.01625,0.48375 -1.30875,1.01625 -0.2875,0.5325 -0.65,1.49875 -1.08375,2.9 -0.3425,1.1575 -0.60625,1.81125 -0.80125,1.95875 -0.19,0.19 -0.5325,0.12125 -1.015,-0.22 -0.625,-0.48375 -1.1375,-0.86875 -1.52375,-1.1575 -0.435,-0.39 -1.035,-0.41 -1.81125,-0.07375 -0.77125,0.435 -1.30375,0.70375 -1.5975,0.79625 -0.33625,0.14625 -0.6975,0.0975 -1.08375,-0.14625 -0.195,-0.0925 -0.67875,-0.45875 -1.45,-1.08375 -1.244241,-1.413513 -1.272816,-1.67346 -0.36125,-1.52375 1.40125,-0.195 2.12375,-0.2875 2.1725,-0.2875 0.91875,-0.245 1.62125,-0.63 2.105,-1.1625 z"
       inkscape:connector-curvature="0"
       sodipodi:nodetypes="cccccccccccccccccccc" /><path
       id="path5946"
       style="fill:#719b3f;fill-rule:evenodd;stroke-width:1.25"
       d="m 43.432834,38.874717 c -0.04875,-0.0975 -0.3125,-0.22 -0.79625,-0.36625 l -0.7275,-0.215 1.1625,-0.36125 h 0.86875 c 0.38625,0 1.20625,-0.195 2.46625,-0.58125 l 2.9,-0.07375 c 0.37125,-0.02375 0.79625,-0.185 1.27,-0.46875 -0.5425,0.5475 -0.89375,0.92375 -1.055,1.12375 -0.19,0.2875 -0.45875,0.43375 -0.79625,0.43375 l -0.43375,-0.14625 0.14625,0.58125 0.5075,1.3775 c -0.39125,-0.24 -0.70375,-0.60125 -0.9425,-1.085 -0.2925,-0.62875 -0.89875,-0.94125 -1.81625,-0.94125 -0.3375,0 -0.69875,0.14125 -1.08875,0.43375 l -0.435,0.36125 0.7275,0.14625 c 0.48375,0.05 0.86875,0.24 1.1575,0.57625 l -0.36125,-0.14125 c -0.14125,-0.0975 -0.41,-0.1225 -0.79625,-0.0725 -0.7275,0.04875 -1.1375,0.0725 -1.23,0.0725 -0.3425,0 -0.55625,-0.0975 -0.655,-0.2925 z"
       inkscape:connector-curvature="0" /></g><path
     style="fill:#961e00;fill-opacity:1;fill-rule:nonzero;stroke:none;stroke-width:5.47693157;stroke-miterlimit:4;stroke-dasharray:none;stroke-opacity:1"
     d="m 8.2995766,36.772538 c -0.1793762,1.033317 1.6443528,2.356413 4.1215954,2.990172 2.477126,0.631761 4.711086,0.345434 5.049273,-0.647052 0,0 -3.070236,-0.511515 -4.599942,-0.90137 -1.529704,-0.389866 -4.5709264,-1.44175 -4.5709264,-1.44175 z"
     id="path5961"
     inkscape:connector-curvature="0"
     sodipodi:nodetypes="ccczc" /><path
     style="fill:#dd2c00;stroke:none;stroke-width:0.61383826px;stroke-linecap:butt;stroke-linejoin:miter;stroke-opacity:1"
     d="m 8.0846889,37.427708 c 0,0 0.9391817,2.450593 4.5240051,3.043711 3.584824,0.593118 4.617329,-0.07363 4.617329,-0.07363 l 0.273162,-1.145733 c 0,0 -3.735987,0.733628 -4.733106,0.497302 C 9.4493334,38.963261 8.4258533,36.417393 8.4258533,36.417393 Z"
     id="path5963"
     inkscape:connector-curvature="0"
     sodipodi:nodetypes="csccscc" /><path
     sodipodi:nodetypes="ccczc"
     inkscape:connector-curvature="0"
     id="path5967"
     d="m 61.023106,37.215607 c 0.135094,0.778223 -1.238414,1.774689 -3.104104,2.251993 -1.865602,0.475799 -3.548068,0.260157 -3.802768,-0.487316 0,0 2.312292,-0.385238 3.464362,-0.67885 1.152069,-0.29362 3.44251,-1.085827 3.44251,-1.085827 z"
     style="fill:#961e00;fill-opacity:1;fill-rule:nonzero;stroke:none;stroke-width:4.12485075;stroke-miterlimit:4;stroke-dasharray:none;stroke-opacity:1" /><path
     sodipodi:nodetypes="csccscc"
     inkscape:connector-curvature="0"
     id="path5969"
     d="m 61.184945,37.709036 c 0,0 -0.707328,1.845619 -3.407172,2.292315 -2.699844,0.446696 -3.477457,-0.05545 -3.477457,-0.05545 l -0.205727,-0.862888 c 0,0 2.813691,0.552519 3.564652,0.374534 2.497947,-0.592035 3.268762,-2.509408 3.268762,-2.509408 z"
     style="fill:#dd2c00;stroke:none;stroke-width:0.46230105px;stroke-linecap:butt;stroke-linejoin:miter;stroke-opacity:1" /></svg>