<?xml version="1.0" encoding="UTF-8" standalone="no"?>
<!-- Created with Inkscape (http://www.inkscape.org/) -->

<svg
   xmlns:dc="http://purl.org/dc/elements/1.1/"
   xmlns:cc="http://creativecommons.org/ns#"
   xmlns:rdf="http://www.w3.org/1999/02/22-rdf-syntax-ns#"
   xmlns:svg="http://www.w3.org/2000/svg"
   xmlns="http://www.w3.org/2000/svg"
   xmlns:sodipodi="http://sodipodi.sourceforge.net/DTD/sodipodi-0.dtd"
   xmlns:inkscape="http://www.inkscape.org/namespaces/inkscape"
   id="svg3945"
   viewBox="0 0 339.99999 489.99999"
   version="1.1"
   inkscape:version="0.91 r13725"
   sodipodi:docname="orange-box-straw.svg"
   width="340"
   height="490">
  <defs
     id="defs13970" />
  <sodipodi:namedview
     pagecolor="#ffffff"
     bordercolor="#666666"
     borderopacity="1"
     objecttolerance="10"
     gridtolerance="10"
     guidetolerance="10"
     inkscape:pageopacity="0"
     inkscape:pageshadow="2"
     inkscape:window-width="1916"
     inkscape:window-height="1035"
     id="namedview13968"
     showgrid="false"
     showguides="false"
     inkscape:zoom="1.2061948"
     inkscape:cx="128.19353"
     inkscape:cy="263.01474"
     inkscape:window-x="29"
     inkscape:window-y="12"
     inkscape:window-maximized="0"
     inkscape:current-layer="svg3945" />
  <metadata
     id="metadata13966">
    <rdf:RDF>
      <cc:Work>
        <dc:format>image/svg+xml</dc:format>
        <dc:type
           rdf:resource="http://purl.org/dc/dcmitype/StillImage" />
        <cc:license
           rdf:resource="http://creativecommons.org/publicdomain/zero/1.0/" />
        <dc:publisher>
          <cc:Agent
             rdf:about="http://openclipart.org/">
            <dc:title>Openclipart</dc:title>
          </cc:Agent>
        </dc:publisher>
        <dc:title>Juice Box with Straw</dc:title>
        <dc:date>2006-12-26T00:00:00</dc:date>
        <dc:description>Juice box with a straw</dc:description>
        <dc:source>https://openclipart.org/detail/29521/juice-box-with-straw-by-orsonj</dc:source>
        <dc:creator>
          <cc:Agent>
            <dc:title>orsonj</dc:title>
          </cc:Agent>
        </dc:creator>
        <dc:subject>
          <rdf:Bag>
            <rdf:li>box</rdf:li>
            <rdf:li>drink</rdf:li>
            <rdf:li>juice</rdf:li>
            <rdf:li>straw</rdf:li>
          </rdf:Bag>
        </dc:subject>
      </cc:Work>
      <cc:License
         rdf:about="http://creativecommons.org/publicdomain/zero/1.0/">
        <cc:permits
           rdf:resource="http://creativecommons.org/ns#Reproduction" />
        <cc:permits
           rdf:resource="http://creativecommons.org/ns#Distribution" />
        <cc:permits
           rdf:resource="http://creativecommons.org/ns#DerivativeWorks" />
      </cc:License>
    </rdf:RDF>
  </metadata>
  <g
     id="g15282"
     transform="translate(4,2.7999878)">
    <g
       transform="translate(-182.43,-261.19)"
       id="layer1">
      <g
         transform="matrix(0.5,0,0,0.5,161.18,239.86)"
         id="g3812">
        <path
           d="m 47.395,337.48 c 17.985,183.32 17.178,363.5 2.858,541.43 57.527,45.07 117.52,87.98 180.43,128.29 128.45,-42.57 256.77,-85.35 370.75,-147.69 4.16,-187.05 11.62,-375.77 1.51,-561.52 -61.67,-37.01 -123.57,-63.85 -181.51,-97.06 L 47.393,337.48 Z"
           style="fill:#f2c802"
           id="path3637"
           inkscape:connector-curvature="0" />
        <path
           d="m 422.84,193.44 c -81.38,29.92 -202.16,78.11 -380.34,141.44 14.677,288.06 12.566,453.65 0.34375,545.34 115.36,91.999 146.33,108.31 186.44,132.84 87.914,-21.796 189.58,-53.734 378.56,-150 7.0162,-210.73 17.454,-381.19 -2.5,-570.69 -60.763,-38.588 -126.9,-61.119 -182.5,-98.938 z m -1.625,13.438 c 53.992,33.335 104.3,49.504 165.69,88.875 -24.201,18.088 -211.07,76.253 -358.62,138.41 -16.637,-17.707 -35.894,-32.794 -56.562,-46.469 0,0 68.543,-29.752 64.656,-34.344 -3.8866,-4.592 -92.938,22.219 -92.938,22.219 -11.12,-15.97 -33.12,-25.39 -57.575,-33.35 122.16,-42.26 223.42,-90.43 335.34,-135.34 z m 176.28,105.3 c 1.2539,180.27 1.241,359.9 -2.8572,537.5 -116.71,48.55 -216.75,107.11 -357.48,141.26 6.52,-179.09 10.42,-357.85 -0.56,-533.23 130.4,-43.46 248,-94.84 360.9,-145.54 z m -539.91,47.23 c 27.909,7.217 54.146,16.822 72.719,37.375 -3.7755,40.426 -7.8255,80.739 -8.3438,122.47 -20.358,-54.579 -40.111,-109.82 -64.375,-159.84 z m 5.5312,44.438 c 19.403,49.192 32.595,100.53 58.094,148.5 36.571,-25.07 65.952,-50.113 93.938,-78.812 14.51,184.5 10.64,351.16 2.03,517.21 -51.17,-35.34 -104.28,-71.1 -158.1,-109.09 10.883,-153 19.17,-317.09 4.035,-477.82 z m 87.906,2.0312 c 23.283,10.429 44.196,23.013 60.094,40.156 -20.778,28.17 -42.388,55.984 -71.719,75.75 2.2376,-40.507 4.7602,-80.688 11.625,-115.91 z"
           style="fill:#000002"
           id="path3698"
           inkscape:connector-curvature="0" />
        <path
           d="m 419.02,263.62 c -2.5794,10.275 49.401,19.692 58.526,13.132 4.0137,-2.8858 -5.5336,-9.2575 -5.3033,-9.7858 12.582,-87.014 40.765,-137.85 62.882,-176.52 0.95421,-1.6687 2.1444,-2.71 5.3033,-0.75762 44.072,27.239 89.732,46.792 143.95,63.892 28.522,-7.0181 27.723,-37.99 11.112,-45.204 l -158.08,-63.898 c -7.5449,-3.0493 -14.978,-2.278 -24.244,2.5254 -30.543,15.834 -56.157,128.61 -76.772,214.91 -6.4818,-0.75762 -16.591,-1.3661 -17.362,1.7046 z"
           style="fill:#000000"
           id="path3641"
           inkscape:connector-curvature="0" />
        <path
           d="m 443.71,258.63 c -1.7872,9.6781 19.619,17.677 21.466,7.8287 14.588,-77.803 35.465,-137.9 65.407,-176.78 4.0619,-5.2736 -19.092,-6.9021 -16.162,-12.879 2.3675,-4.8306 13.003,6.4652 14.9,5.3033 2.9282,-1.7934 -2.7748,-13.528 2.0203,-14.142 4.3104,-0.55195 2.0874,11.557 4.7982,12.122 3.4327,0.71499 12.159,-13.28 14.647,-10.354 2.5952,3.0509 -14.527,10.545 -9.849,13.637 41.966,27.742 91.502,44.578 138.64,61.872 -2.5174,-17.243 0.0768,-29.055 8.3338,-34.85 -0.29,0.74 -133.04,-51.447 -149.5,-59.342 -13.01,-6.24 -18.68,-4.428 -26.26,4.546 -23.31,27.59 -54.24,126.17 -68.44,203.04 z"
           style="fill:#acc3cc;fill-opacity:1"
           id="path3645"
           inkscape:connector-curvature="0" />
        <path
           d="m 685.33,142.81 c 0.90862,3.2016 2.761,3.9708 5.671,2.4842 14.172,-7.24 11.559,-26.063 4.849,-28.442 -6.5548,-2.3237 -13.112,16.823 -10.52,25.958 z"
           style="fill:#e6f1f1;fill-opacity:1"
           id="path3672"
           inkscape:connector-curvature="0" />
      </g>
    </g>
    <path
       inkscape:connector-curvature="0"
       id="path15241"
       d="m 207.64916,201.48136 c -16.564,1.83474 -35.02899,-4.64665 -49.96241,5.2898 -3.25189,6.52469 1.87653,15.56648 0.72426,23.22145 -0.77212,6.5221 -7.46761,-0.8027 -10.16544,4.99287 -9.35303,6.38205 -22.82277,11.36323 -24.68992,24.06688 0.65148,7.76141 -3.09871,20.13331 -10.30696,19.67228 -2.19156,12.31403 4.63682,24.54077 1.17933,36.76141 -7.87224,10.98932 -15.648054,26.26308 -8.55761,39.49637 7.81896,6.57411 8.32941,16.81168 9.31364,26.34272 1.25787,6.72044 7.60081,12.62701 5.3845,14.19767 9.74377,2.67463 18.74045,-5.00444 28.58922,-4.07751 14.87746,-0.25414 31.48683,6.20634 44.96972,-2.81297 12.66377,0.60887 17.12297,-12.15886 21.08152,-21.24627 5.49983,-7.92341 12.25331,-14.97538 17.84678,-22.72848 7.41523,-15.64977 0.19498,-33.4794 4.79379,-49.62282 4.3297,-10.05582 13.82095,-17.17154 16.77758,-27.95082 6.23178,-6.62261 2.47321,-16.83451 -5.12088,-20.42146 -8.47467,-2.67063 -13.32353,-8.03339 -12.74336,-17.39267 -0.98242,-9.60357 -3.35756,-21.75856 -14.02316,-24.95405 -5.18968,1.0717 -21.73352,-2.08289 -8.97406,-4.3985 4.54795,3.15288 -4.99202,3.81991 -6.11654,1.5641 z"
       style="opacity:0.12600002;fill:#e7be04;fill-opacity:1;fill-rule:evenodd;stroke:none;stroke-width:1px;stroke-linecap:butt;stroke-linejoin:miter;stroke-opacity:1" />
    <g
       id="layer1-7"
       inkscape:label="Layer 1"
       transform="matrix(1.1575324,-0.39746817,0,1.3392631,107.65216,226.65607)">
      <g
         id="g3635"
         inkscape:transform-center-x="-53.542601"
         inkscape:transform-center-y="63.866729"
         transform="matrix(1.0777,0,0,0.9338,-214.85,-177.08)">
        <g
           id="g5868"
           transform="matrix(0.77008,0,0,0.90906,-83.159,107.62)">
          <ellipse
             ry="42.500156"
             rx="46.210487"
             cy="191.56537"
             cx="397.00543"
             id="path3584"
             style="fill:#ff7800;stroke:#000000;stroke-width:6.47310019;stroke-linecap:round;stroke-linejoin:round"
             transform="matrix(1.0427,0,0,1.0831,18.687,-16.905)" />
          <path
             inkscape:connector-curvature="0"
             id="path3660"
             sodipodi:nodetypes="czczc"
             style="fill:#008000;fill-rule:evenodd;stroke:#000000;stroke-width:5.7329998;stroke-linejoin:round"
             d="m 452.23,169.29 c 0.15,0.09 20.35,-8.58 30.74,-6.05 10.4,2.52 33,-9.1 49.32,-25.36 -24.77,-3.5 -50.61,-0.87 -62,7.11 -11.39,7.98 -18.06,24.3 -18.06,24.3 z" />
          <path
             inkscape:connector-curvature="0"
             id="path3681"
             style="fill:#008000;fill-rule:evenodd;stroke:#000000;stroke-width:5.7329998;stroke-linejoin:round"
             d="m 454.25,167.15 c -0.18,-0.03 -10.34,-19.52 -19.99,-24.13 -9.65,-4.62 -19.81,-27.92 -22.17,-50.827 21.4,12.957 39.76,31.327 43.54,44.707 3.77,13.39 -1.38,30.25 -1.38,30.25 z"
             inkscape:transform-center-x="20.10941"
             inkscape:transform-center-y="-41.513808"
             sodipodi:nodetypes="czczc" />
          <path
             inkscape:connector-curvature="0"
             id="path3750"
             sodipodi:nodetypes="csssz"
             style="fill:#ffffff"
             d="m 430.56,156.19 c 4.5,4.58 -5,0.37 -17.9,11.9 -14.65,13.1 -10.2,24.1 -14.96,19.83 -4.78,-4.3 -1.42,-17.92 6.98,-25.64 8.4,-7.73 21.4,-10.65 25.88,-6.09 z" />
        </g>
      </g>
    </g>
    <g
       id="text15247"
       style="font-style:normal;font-weight:normal;font-size:52.65681458px;line-height:125%;font-family:sans-serif;letter-spacing:0px;word-spacing:0px;fill:#93551e;fill-opacity:1;stroke:#442e2e;stroke-width:2;stroke-linecap:butt;stroke-linejoin:miter;stroke-miterlimit:4;stroke-dasharray:none;stroke-opacity:1"
       transform="matrix(0.98231625,-0.36616306,0.14029971,0.96570471,0,0)">
      <path
         inkscape:connector-curvature="0"
         id="path15252"
         d="m 84.504039,447.4817 c -3.558708,6.06408 -1.121469,13.28455 -2.015409,19.87034 -0.04879,5.73469 -0.05242,11.51786 -1.167037,17.16715 -3.087193,5.74148 -11.575901,1.88415 -12.842196,-3.33968 -3.296939,-2.70334 -8.636783,-10.65744 -1.079683,-11.36562 4.165306,0.0123 4.809613,8.39548 7.348185,7.67638 1.62843,-8.30831 0.888576,-16.86281 0.668605,-25.25185 -1.655112,-4.79887 2.218431,-12.58245 7.327034,-7.42224 0.810579,0.705 1.488297,1.61034 1.760501,2.66552 z"
         style="font-style:normal;font-variant:normal;font-weight:normal;font-stretch:normal;font-family:'Marker Felt';-inkscape-font-specification:'Marker Felt';fill:#93551e;fill-opacity:1;stroke:#442e2e;stroke-width:2;stroke-miterlimit:4;stroke-dasharray:none;stroke-opacity:1" />
      <path
         inkscape:connector-curvature="0"
         id="path15254"
         d="m 114.02641,445.5334 c 0.18146,6.525 -0.36785,13.05367 -0.51611,19.57488 -0.65157,7.57582 -1.89698,16.1424 -7.75342,21.54067 -5.24341,3.47791 -12.476897,-1.09497 -13.384947,-6.85494 -3.927369,-10.62959 -3.089888,-22.21272 -3.158395,-33.31852 2.825599,-6.47527 11.919792,0.81086 7.842841,5.96291 -0.674463,6.57115 0.649446,13.17079 1.346466,19.69996 0.216234,2.82252 0.763916,9.57652 4.679825,5.71392 2.01329,-5.94991 2.26939,-12.45513 2.91071,-18.70683 1.24437,-4.76388 -1.24895,-8.77647 -1.13518,-13.09212 1.60097,-3.5428 7.35775,-4.3195 9.16821,-0.51993 z"
         style="font-style:normal;font-variant:normal;font-weight:normal;font-stretch:normal;font-family:'Marker Felt';-inkscape-font-specification:'Marker Felt';fill:#93551e;fill-opacity:1;stroke:#442e2e;stroke-width:2;stroke-miterlimit:4;stroke-dasharray:none;stroke-opacity:1" />
      <path
         inkscape:connector-curvature="0"
         id="path15256"
         d="m 128.8345,485.60523 c -5.19933,4.87749 -11.95589,-3.27358 -8.22431,-8.26859 -0.28362,-9.67126 -0.51558,-19.34436 -0.89847,-29.01243 -2.99027,-7.27147 11.89012,-5.45561 8.35443,1.00987 -1.06742,3.84813 -0.3093,8.15042 -0.40713,12.17554 0.40091,7.22547 -0.25694,14.51503 0.74906,21.69458 0.33282,0.73748 0.74277,1.57875 0.42642,2.40103 z"
         style="font-style:normal;font-variant:normal;font-weight:normal;font-stretch:normal;font-family:'Marker Felt';-inkscape-font-specification:'Marker Felt';fill:#93551e;fill-opacity:1;stroke:#442e2e;stroke-width:2;stroke-miterlimit:4;stroke-dasharray:none;stroke-opacity:1" />
      <path
         inkscape:connector-curvature="0"
         id="path15258"
         d="m 153.77161,474.9159 c -2.2575,5.06285 -4.81263,12.81528 -11.63002,12.40107 -7.13658,-1.34347 -9.06174,-9.70577 -9.29485,-15.91543 -0.59296,-8.96185 0.63134,-18.56288 5.79263,-26.1158 5.52706,-5.1118 13.71263,0.65815 14.00025,7.28882 3.08218,4.57445 0.23742,13.44352 -5.8483,8.57041 -2.2676,-2.75752 1.2646,-10.19572 -4.07601,-9.71353 -2.89013,6.83254 -2.61842,14.50589 -2.56342,21.78637 -1.18319,3.43886 3.48611,10.12202 5.46951,4.52526 0.22045,-4.67749 4.97157,-12.32264 9.45073,-6.52763 0.62526,1.33103 -0.0414,3.01006 -1.30052,3.70046 z"
         style="font-style:normal;font-variant:normal;font-weight:normal;font-stretch:normal;font-family:'Marker Felt';-inkscape-font-specification:'Marker Felt';fill:#93551e;fill-opacity:1;stroke:#442e2e;stroke-width:2;stroke-miterlimit:4;stroke-dasharray:none;stroke-opacity:1" />
      <path
         inkscape:connector-curvature="0"
         id="path15260"
         d="m 178.33931,449.06141 c -4.76531,0.82216 -12.88365,1.90143 -11.90102,8.48498 -1.20856,3.22428 0.91216,9.50379 5.12806,6.26317 6.28045,0.1396 3.579,10.35379 -1.92239,7.20788 -5.98989,0.79427 -1.47792,11.04367 2.44002,5.34627 6.4853,-1.92056 6.99725,9.35397 0.22578,7.6989 -4.09137,3.35016 -12.96188,5.19076 -12.69078,-2.55453 -0.59715,-6.78068 0.15062,-13.59638 -0.26384,-20.38974 -0.0343,-5.09621 -0.0409,-10.19908 0.32484,-15.28518 5.74503,-0.0104 11.78049,-2.54593 16.95093,-2.36317 1.73374,1.15351 2.87385,3.65516 1.7084,5.59142 z"
         style="font-style:normal;font-variant:normal;font-weight:normal;font-stretch:normal;font-family:'Marker Felt';-inkscape-font-specification:'Marker Felt';fill:#93551e;fill-opacity:1;stroke:#442e2e;stroke-width:2;stroke-miterlimit:4;stroke-dasharray:none;stroke-opacity:1" />
    </g>
  </g>
</svg>
